<svg width="138" height="161" viewBox="0 0 138 161" fill="none" xmlns="http://www.w3.org/2000/svg">
<path d="M43.24 62.33C43.24 66.1634 43.93 69.7667 45.31 73.14C46.69 76.36 48.53 79.1967 50.83 81.65C53.2833 84.1033 56.12 86.02 59.34 87.4C62.7133 88.78 66.3167 89.47 70.15 89.47C73.83 89.47 77.28 88.78 80.5 87.4C83.8733 86.02 86.71 84.1033 89.01 81.65L70.15 62.33L89.01 43.7C86.71 41.2467 83.8733 39.33 80.5 37.95C77.28 36.57 73.83 35.88 70.15 35.88C66.47 35.88 62.9433 36.57 59.57 37.95C56.35 39.33 53.5133 41.2467 51.06 43.7C48.76 46.1533 46.8433 48.99 45.31 52.21C43.93 55.2767 43.24 58.65 43.24 62.33ZM95.68 161V110.17C86.02 120.29 73.83 125.35 59.11 125.35C50.6767 125.35 42.8567 123.74 35.65 120.52C28.4433 117.3 22.1567 112.853 16.79 107.18C11.5767 101.507 7.43666 94.9133 4.37 87.4C1.45666 79.7333 0 71.6067 0 63.02C0 54.1267 1.53332 45.8467 4.59999 38.18C7.66666 30.5133 11.8833 23.8433 17.25 18.17C22.6167 12.4967 28.9033 8.05001 36.11 4.83001C43.3167 1.61001 51.1367 0 59.57 0C74.75 0 86.7867 5.59667 95.68 16.79V3.68001H137.54V43.7L118.5 62.33L137.54 81.65V161H95.68Z" fill="#1B1212"/>
</svg>
