<svg width="75" height="13" viewBox="0 0 75 13" fill="none" xmlns="http://www.w3.org/2000/svg">
<mask id="path-1-outside-1_151_8" maskUnits="userSpaceOnUse" x="-1" y="-1" width="76" height="14" fill="black">
<rect fill="white" x="-1" y="-1" width="76" height="14"/>
<path d="M2.72656 12.5117C2.58984 12.4102 2.50586 12.2734 2.47461 12.1016C2.44727 11.9336 2.47266 11.7344 2.55078 11.5039L3.75781 7.92383L0.681641 5.71484C0.482422 5.57422 0.34375 5.42773 0.265625 5.27539C0.1875 5.11914 0.175781 4.95898 0.230469 4.79492C0.285156 4.63477 0.388672 4.51562 0.541016 4.4375C0.693359 4.35547 0.892578 4.31641 1.13867 4.32031L4.90625 4.34375L6.05469 0.746094C6.12891 0.511719 6.22656 0.333984 6.34766 0.212891C6.47266 0.0878906 6.61914 0.0253906 6.78711 0.0253906C6.95898 0.0253906 7.10547 0.0878906 7.22656 0.212891C7.35156 0.333984 7.45117 0.511719 7.52539 0.746094L8.67383 4.34375L12.4414 4.32031C12.6875 4.31641 12.8867 4.35547 13.0391 4.4375C13.1914 4.51562 13.2949 4.63477 13.3496 4.79492C13.4043 4.95898 13.3926 5.11914 13.3145 5.27539C13.2363 5.42773 13.0977 5.57422 12.8984 5.71484L9.82227 7.92383L11.0293 11.5039C11.1074 11.7344 11.1309 11.9336 11.0996 12.1016C11.0723 12.2734 10.9902 12.4102 10.8535 12.5117C10.7168 12.6211 10.5625 12.6602 10.3906 12.6289C10.2188 12.5977 10.0352 12.5117 9.83984 12.3711L6.78711 10.127L3.74023 12.3711C3.54492 12.5117 3.36133 12.5977 3.18945 12.6289C3.01758 12.6602 2.86328 12.6211 2.72656 12.5117ZM17.9525 12.5117C17.8158 12.4102 17.7318 12.2734 17.7005 12.1016C17.6732 11.9336 17.6986 11.7344 17.7767 11.5039L18.9838 7.92383L15.9076 5.71484C15.7084 5.57422 15.5697 5.42773 15.4916 5.27539C15.4134 5.11914 15.4017 4.95898 15.4564 4.79492C15.5111 4.63477 15.6146 4.51562 15.767 4.4375C15.9193 4.35547 16.1185 4.31641 16.3646 4.32031L20.1322 4.34375L21.2806 0.746094C21.3548 0.511719 21.4525 0.333984 21.5736 0.212891C21.6986 0.0878906 21.8451 0.0253906 22.013 0.0253906C22.1849 0.0253906 22.3314 0.0878906 22.4525 0.212891C22.5775 0.333984 22.6771 0.511719 22.7513 0.746094L23.8998 4.34375L27.6673 4.32031C27.9134 4.31641 28.1127 4.35547 28.265 4.4375C28.4173 4.51562 28.5209 4.63477 28.5755 4.79492C28.6302 4.95898 28.6185 5.11914 28.5404 5.27539C28.4623 5.42773 28.3236 5.57422 28.1244 5.71484L25.0482 7.92383L26.2552 11.5039C26.3334 11.7344 26.3568 11.9336 26.3255 12.1016C26.2982 12.2734 26.2162 12.4102 26.0795 12.5117C25.9427 12.6211 25.7884 12.6602 25.6166 12.6289C25.4447 12.5977 25.2611 12.5117 25.0658 12.3711L22.013 10.127L18.9662 12.3711C18.7709 12.5117 18.5873 12.5977 18.4154 12.6289C18.2435 12.6602 18.0892 12.6211 17.9525 12.5117ZM33.1784 12.5117C33.0417 12.4102 32.9577 12.2734 32.9265 12.1016C32.8991 11.9336 32.9245 11.7344 33.0027 11.5039L34.2097 7.92383L31.1335 5.71484C30.9343 5.57422 30.7956 5.42773 30.7175 5.27539C30.6394 5.11914 30.6277 4.95898 30.6823 4.79492C30.737 4.63477 30.8405 4.51562 30.9929 4.4375C31.1452 4.35547 31.3445 4.31641 31.5905 4.32031L35.3581 4.34375L36.5066 0.746094C36.5808 0.511719 36.6784 0.333984 36.7995 0.212891C36.9245 0.0878906 37.071 0.0253906 37.239 0.0253906C37.4109 0.0253906 37.5573 0.0878906 37.6784 0.212891C37.8034 0.333984 37.903 0.511719 37.9773 0.746094L39.1257 4.34375L42.8933 4.32031C43.1394 4.31641 43.3386 4.35547 43.4909 4.4375C43.6433 4.51562 43.7468 4.63477 43.8015 4.79492C43.8562 4.95898 43.8445 5.11914 43.7663 5.27539C43.6882 5.42773 43.5495 5.57422 43.3503 5.71484L40.2741 7.92383L41.4812 11.5039C41.5593 11.7344 41.5827 11.9336 41.5515 12.1016C41.5241 12.2734 41.4421 12.4102 41.3054 12.5117C41.1687 12.6211 41.0144 12.6602 40.8425 12.6289C40.6706 12.5977 40.487 12.5117 40.2917 12.3711L37.239 10.127L34.1921 12.3711C33.9968 12.5117 33.8132 12.5977 33.6413 12.6289C33.4695 12.6602 33.3152 12.6211 33.1784 12.5117ZM34.2097 11.0938C34.2175 11.1055 34.2331 11.1035 34.2566 11.0879L36.8991 9.04883C37.0163 8.95508 37.1296 8.9082 37.239 8.9082C37.3523 8.9082 37.4675 8.95508 37.5847 9.04883L40.2273 11.0879C40.2507 11.1035 40.2663 11.1055 40.2741 11.0938C40.278 11.0859 40.278 11.0703 40.2741 11.0469L39.1609 7.90625C39.1296 7.8125 39.112 7.72852 39.1081 7.6543C39.1081 7.57617 39.1277 7.50586 39.1667 7.44336C39.2097 7.38086 39.2741 7.32031 39.3601 7.26172L42.114 5.38086C42.1374 5.36523 42.1472 5.34961 42.1433 5.33398C42.1394 5.32227 42.1218 5.31641 42.0905 5.31641L38.7624 5.39844C38.6101 5.40234 38.4909 5.37695 38.405 5.32227C38.3191 5.26367 38.2546 5.1582 38.2116 5.00586L37.2741 1.8125C37.2663 1.78516 37.2546 1.77148 37.239 1.77148C37.2273 1.77148 37.2175 1.78516 37.2097 1.8125L36.2722 5.00586C36.2292 5.1582 36.1648 5.26367 36.0788 5.32227C35.9929 5.37695 35.8738 5.40234 35.7214 5.39844L32.3933 5.31641C32.362 5.31641 32.3445 5.32227 32.3405 5.33398C32.3366 5.34961 32.3464 5.36523 32.3698 5.38086L35.1238 7.26172C35.2097 7.32031 35.2722 7.38086 35.3113 7.44336C35.3542 7.50586 35.3738 7.57617 35.3698 7.6543C35.3698 7.72852 35.3542 7.8125 35.323 7.90625L34.2097 11.0469C34.2019 11.0703 34.2019 11.0859 34.2097 11.0938ZM48.4044 12.5117C48.2677 12.4102 48.1837 12.2734 48.1524 12.1016C48.1251 11.9336 48.1505 11.7344 48.2286 11.5039L49.4356 7.92383L46.3595 5.71484C46.1602 5.57422 46.0216 5.42773 45.9434 5.27539C45.8653 5.11914 45.8536 4.95898 45.9083 4.79492C45.963 4.63477 46.0665 4.51562 46.2188 4.4375C46.3712 4.35547 46.5704 4.31641 46.8165 4.32031L50.5841 4.34375L51.7325 0.746094C51.8067 0.511719 51.9044 0.333984 52.0255 0.212891C52.1505 0.0878906 52.297 0.0253906 52.4649 0.0253906C52.6368 0.0253906 52.7833 0.0878906 52.9044 0.212891C53.0294 0.333984 53.129 0.511719 53.2032 0.746094L54.3516 4.34375L58.1192 4.32031C58.3653 4.31641 58.5645 4.35547 58.7169 4.4375C58.8692 4.51562 58.9727 4.63477 59.0274 4.79492C59.0821 4.95898 59.0704 5.11914 58.9923 5.27539C58.9141 5.42773 58.7755 5.57422 58.5762 5.71484L55.5001 7.92383L56.7071 11.5039C56.7852 11.7344 56.8087 11.9336 56.7774 12.1016C56.7501 12.2734 56.668 12.4102 56.5313 12.5117C56.3946 12.6211 56.2403 12.6602 56.0684 12.6289C55.8966 12.5977 55.713 12.5117 55.5177 12.3711L52.4649 10.127L49.418 12.3711C49.2227 12.5117 49.0391 12.5977 48.8673 12.6289C48.6954 12.6602 48.5411 12.6211 48.4044 12.5117ZM49.4356 11.0938C49.4434 11.1055 49.4591 11.1035 49.4825 11.0879L52.1251 9.04883C52.2423 8.95508 52.3555 8.9082 52.4649 8.9082C52.5782 8.9082 52.6934 8.95508 52.8106 9.04883L55.4532 11.0879C55.4766 11.1035 55.4923 11.1055 55.5001 11.0938C55.504 11.0859 55.504 11.0703 55.5001 11.0469L54.3868 7.90625C54.3555 7.8125 54.338 7.72852 54.3341 7.6543C54.3341 7.57617 54.3536 7.50586 54.3927 7.44336C54.4356 7.38086 54.5001 7.32031 54.586 7.26172L57.3399 5.38086C57.3634 5.36523 57.3731 5.34961 57.3692 5.33398C57.3653 5.32227 57.3477 5.31641 57.3165 5.31641L53.9884 5.39844C53.836 5.40234 53.7169 5.37695 53.6309 5.32227C53.545 5.26367 53.4805 5.1582 53.4376 5.00586L52.5001 1.8125C52.4923 1.78516 52.4805 1.77148 52.4649 1.77148C52.4532 1.77148 52.4434 1.78516 52.4356 1.8125L51.4981 5.00586C51.4552 5.1582 51.3907 5.26367 51.3048 5.32227C51.2188 5.37695 51.0997 5.40234 50.9473 5.39844L47.6192 5.31641C47.588 5.31641 47.5704 5.32227 47.5665 5.33398C47.5626 5.34961 47.5723 5.36523 47.5958 5.38086L50.3497 7.26172C50.4356 7.32031 50.4981 7.38086 50.5372 7.44336C50.5802 7.50586 50.5997 7.57617 50.5958 7.6543C50.5958 7.72852 50.5802 7.8125 50.5489 7.90625L49.4356 11.0469C49.4278 11.0703 49.4278 11.0859 49.4356 11.0938ZM63.6303 12.5117C63.4936 12.4102 63.4096 12.2734 63.3784 12.1016C63.351 11.9336 63.3764 11.7344 63.4545 11.5039L64.6616 7.92383L61.5854 5.71484C61.3862 5.57422 61.2475 5.42773 61.1694 5.27539C61.0913 5.11914 61.0795 4.95898 61.1342 4.79492C61.1889 4.63477 61.2924 4.51562 61.4448 4.4375C61.5971 4.35547 61.7963 4.31641 62.0424 4.32031L65.81 4.34375L66.9584 0.746094C67.0327 0.511719 67.1303 0.333984 67.2514 0.212891C67.3764 0.0878906 67.5229 0.0253906 67.6909 0.0253906C67.8627 0.0253906 68.0092 0.0878906 68.1303 0.212891C68.2553 0.333984 68.3549 0.511719 68.4291 0.746094L69.5776 4.34375L73.3452 4.32031C73.5913 4.31641 73.7905 4.35547 73.9428 4.4375C74.0952 4.51562 74.1987 4.63477 74.2534 4.79492C74.308 4.95898 74.2963 5.11914 74.2182 5.27539C74.1401 5.42773 74.0014 5.57422 73.8022 5.71484L70.726 7.92383L71.933 11.5039C72.0112 11.7344 72.0346 11.9336 72.0034 12.1016C71.976 12.2734 71.894 12.4102 71.7573 12.5117C71.6205 12.6211 71.4663 12.6602 71.2944 12.6289C71.1225 12.5977 70.9389 12.5117 70.7436 12.3711L67.6909 10.127L64.644 12.3711C64.4487 12.5117 64.2651 12.5977 64.0932 12.6289C63.9213 12.6602 63.767 12.6211 63.6303 12.5117ZM64.6616 11.0938C64.6694 11.1055 64.685 11.1035 64.7084 11.0879L67.351 9.04883C67.4682 8.95508 67.5815 8.9082 67.6909 8.9082C67.8041 8.9082 67.9194 8.95508 68.0366 9.04883L70.6791 11.0879C70.7026 11.1035 70.7182 11.1055 70.726 11.0938C70.7299 11.0859 70.7299 11.0703 70.726 11.0469L69.6127 7.90625C69.5815 7.8125 69.5639 7.72852 69.56 7.6543C69.56 7.57617 69.5795 7.50586 69.6186 7.44336C69.6616 7.38086 69.726 7.32031 69.812 7.26172L72.5659 5.38086C72.5893 5.36523 72.5991 5.34961 72.5952 5.33398C72.5913 5.32227 72.5737 5.31641 72.5424 5.31641L69.2143 5.39844C69.062 5.40234 68.9428 5.37695 68.8569 5.32227C68.7709 5.26367 68.7065 5.1582 68.6635 5.00586L67.726 1.8125C67.7182 1.78516 67.7065 1.77148 67.6909 1.77148C67.6791 1.77148 67.6694 1.78516 67.6616 1.8125L66.7241 5.00586C66.6811 5.1582 66.6166 5.26367 66.5307 5.32227C66.4448 5.37695 66.3256 5.40234 66.1733 5.39844L62.8452 5.31641C62.8139 5.31641 62.7963 5.32227 62.7924 5.33398C62.7885 5.34961 62.7983 5.36523 62.8217 5.38086L65.5756 7.26172C65.6616 7.32031 65.7241 7.38086 65.7631 7.44336C65.8061 7.50586 65.8256 7.57617 65.8217 7.6543C65.8217 7.72852 65.8061 7.8125 65.7748 7.90625L64.6616 11.0469C64.6538 11.0703 64.6538 11.0859 64.6616 11.0938Z"/>
</mask>
<path d="M2.72656 12.5117C2.58984 12.4102 2.50586 12.2734 2.47461 12.1016C2.44727 11.9336 2.47266 11.7344 2.55078 11.5039L3.75781 7.92383L0.681641 5.71484C0.482422 5.57422 0.34375 5.42773 0.265625 5.27539C0.1875 5.11914 0.175781 4.95898 0.230469 4.79492C0.285156 4.63477 0.388672 4.51562 0.541016 4.4375C0.693359 4.35547 0.892578 4.31641 1.13867 4.32031L4.90625 4.34375L6.05469 0.746094C6.12891 0.511719 6.22656 0.333984 6.34766 0.212891C6.47266 0.0878906 6.61914 0.0253906 6.78711 0.0253906C6.95898 0.0253906 7.10547 0.0878906 7.22656 0.212891C7.35156 0.333984 7.45117 0.511719 7.52539 0.746094L8.67383 4.34375L12.4414 4.32031C12.6875 4.31641 12.8867 4.35547 13.0391 4.4375C13.1914 4.51562 13.2949 4.63477 13.3496 4.79492C13.4043 4.95898 13.3926 5.11914 13.3145 5.27539C13.2363 5.42773 13.0977 5.57422 12.8984 5.71484L9.82227 7.92383L11.0293 11.5039C11.1074 11.7344 11.1309 11.9336 11.0996 12.1016C11.0723 12.2734 10.9902 12.4102 10.8535 12.5117C10.7168 12.6211 10.5625 12.6602 10.3906 12.6289C10.2188 12.5977 10.0352 12.5117 9.83984 12.3711L6.78711 10.127L3.74023 12.3711C3.54492 12.5117 3.36133 12.5977 3.18945 12.6289C3.01758 12.6602 2.86328 12.6211 2.72656 12.5117ZM17.9525 12.5117C17.8158 12.4102 17.7318 12.2734 17.7005 12.1016C17.6732 11.9336 17.6986 11.7344 17.7767 11.5039L18.9838 7.92383L15.9076 5.71484C15.7084 5.57422 15.5697 5.42773 15.4916 5.27539C15.4134 5.11914 15.4017 4.95898 15.4564 4.79492C15.5111 4.63477 15.6146 4.51562 15.767 4.4375C15.9193 4.35547 16.1185 4.31641 16.3646 4.32031L20.1322 4.34375L21.2806 0.746094C21.3548 0.511719 21.4525 0.333984 21.5736 0.212891C21.6986 0.0878906 21.8451 0.0253906 22.013 0.0253906C22.1849 0.0253906 22.3314 0.0878906 22.4525 0.212891C22.5775 0.333984 22.6771 0.511719 22.7513 0.746094L23.8998 4.34375L27.6673 4.32031C27.9134 4.31641 28.1127 4.35547 28.265 4.4375C28.4173 4.51562 28.5209 4.63477 28.5755 4.79492C28.6302 4.95898 28.6185 5.11914 28.5404 5.27539C28.4623 5.42773 28.3236 5.57422 28.1244 5.71484L25.0482 7.92383L26.2552 11.5039C26.3334 11.7344 26.3568 11.9336 26.3255 12.1016C26.2982 12.2734 26.2162 12.4102 26.0795 12.5117C25.9427 12.6211 25.7884 12.6602 25.6166 12.6289C25.4447 12.5977 25.2611 12.5117 25.0658 12.3711L22.013 10.127L18.9662 12.3711C18.7709 12.5117 18.5873 12.5977 18.4154 12.6289C18.2435 12.6602 18.0892 12.6211 17.9525 12.5117ZM33.1784 12.5117C33.0417 12.4102 32.9577 12.2734 32.9265 12.1016C32.8991 11.9336 32.9245 11.7344 33.0027 11.5039L34.2097 7.92383L31.1335 5.71484C30.9343 5.57422 30.7956 5.42773 30.7175 5.27539C30.6394 5.11914 30.6277 4.95898 30.6823 4.79492C30.737 4.63477 30.8405 4.51562 30.9929 4.4375C31.1452 4.35547 31.3445 4.31641 31.5905 4.32031L35.3581 4.34375L36.5066 0.746094C36.5808 0.511719 36.6784 0.333984 36.7995 0.212891C36.9245 0.0878906 37.071 0.0253906 37.239 0.0253906C37.4109 0.0253906 37.5573 0.0878906 37.6784 0.212891C37.8034 0.333984 37.903 0.511719 37.9773 0.746094L39.1257 4.34375L42.8933 4.32031C43.1394 4.31641 43.3386 4.35547 43.4909 4.4375C43.6433 4.51562 43.7468 4.63477 43.8015 4.79492C43.8562 4.95898 43.8445 5.11914 43.7663 5.27539C43.6882 5.42773 43.5495 5.57422 43.3503 5.71484L40.2741 7.92383L41.4812 11.5039C41.5593 11.7344 41.5827 11.9336 41.5515 12.1016C41.5241 12.2734 41.4421 12.4102 41.3054 12.5117C41.1687 12.6211 41.0144 12.6602 40.8425 12.6289C40.6706 12.5977 40.487 12.5117 40.2917 12.3711L37.239 10.127L34.1921 12.3711C33.9968 12.5117 33.8132 12.5977 33.6413 12.6289C33.4695 12.6602 33.3152 12.6211 33.1784 12.5117ZM34.2097 11.0938C34.2175 11.1055 34.2331 11.1035 34.2566 11.0879L36.8991 9.04883C37.0163 8.95508 37.1296 8.9082 37.239 8.9082C37.3523 8.9082 37.4675 8.95508 37.5847 9.04883L40.2273 11.0879C40.2507 11.1035 40.2663 11.1055 40.2741 11.0938C40.278 11.0859 40.278 11.0703 40.2741 11.0469L39.1609 7.90625C39.1296 7.8125 39.112 7.72852 39.1081 7.6543C39.1081 7.57617 39.1277 7.50586 39.1667 7.44336C39.2097 7.38086 39.2741 7.32031 39.3601 7.26172L42.114 5.38086C42.1374 5.36523 42.1472 5.34961 42.1433 5.33398C42.1394 5.32227 42.1218 5.31641 42.0905 5.31641L38.7624 5.39844C38.6101 5.40234 38.4909 5.37695 38.405 5.32227C38.3191 5.26367 38.2546 5.1582 38.2116 5.00586L37.2741 1.8125C37.2663 1.78516 37.2546 1.77148 37.239 1.77148C37.2273 1.77148 37.2175 1.78516 37.2097 1.8125L36.2722 5.00586C36.2292 5.1582 36.1648 5.26367 36.0788 5.32227C35.9929 5.37695 35.8738 5.40234 35.7214 5.39844L32.3933 5.31641C32.362 5.31641 32.3445 5.32227 32.3405 5.33398C32.3366 5.34961 32.3464 5.36523 32.3698 5.38086L35.1238 7.26172C35.2097 7.32031 35.2722 7.38086 35.3113 7.44336C35.3542 7.50586 35.3738 7.57617 35.3698 7.6543C35.3698 7.72852 35.3542 7.8125 35.323 7.90625L34.2097 11.0469C34.2019 11.0703 34.2019 11.0859 34.2097 11.0938ZM48.4044 12.5117C48.2677 12.4102 48.1837 12.2734 48.1524 12.1016C48.1251 11.9336 48.1505 11.7344 48.2286 11.5039L49.4356 7.92383L46.3595 5.71484C46.1602 5.57422 46.0216 5.42773 45.9434 5.27539C45.8653 5.11914 45.8536 4.95898 45.9083 4.79492C45.963 4.63477 46.0665 4.51562 46.2188 4.4375C46.3712 4.35547 46.5704 4.31641 46.8165 4.32031L50.5841 4.34375L51.7325 0.746094C51.8067 0.511719 51.9044 0.333984 52.0255 0.212891C52.1505 0.0878906 52.297 0.0253906 52.4649 0.0253906C52.6368 0.0253906 52.7833 0.0878906 52.9044 0.212891C53.0294 0.333984 53.129 0.511719 53.2032 0.746094L54.3516 4.34375L58.1192 4.32031C58.3653 4.31641 58.5645 4.35547 58.7169 4.4375C58.8692 4.51562 58.9727 4.63477 59.0274 4.79492C59.0821 4.95898 59.0704 5.11914 58.9923 5.27539C58.9141 5.42773 58.7755 5.57422 58.5762 5.71484L55.5001 7.92383L56.7071 11.5039C56.7852 11.7344 56.8087 11.9336 56.7774 12.1016C56.7501 12.2734 56.668 12.4102 56.5313 12.5117C56.3946 12.6211 56.2403 12.6602 56.0684 12.6289C55.8966 12.5977 55.713 12.5117 55.5177 12.3711L52.4649 10.127L49.418 12.3711C49.2227 12.5117 49.0391 12.5977 48.8673 12.6289C48.6954 12.6602 48.5411 12.6211 48.4044 12.5117ZM49.4356 11.0938C49.4434 11.1055 49.4591 11.1035 49.4825 11.0879L52.1251 9.04883C52.2423 8.95508 52.3555 8.9082 52.4649 8.9082C52.5782 8.9082 52.6934 8.95508 52.8106 9.04883L55.4532 11.0879C55.4766 11.1035 55.4923 11.1055 55.5001 11.0938C55.504 11.0859 55.504 11.0703 55.5001 11.0469L54.3868 7.90625C54.3555 7.8125 54.338 7.72852 54.3341 7.6543C54.3341 7.57617 54.3536 7.50586 54.3927 7.44336C54.4356 7.38086 54.5001 7.32031 54.586 7.26172L57.3399 5.38086C57.3634 5.36523 57.3731 5.34961 57.3692 5.33398C57.3653 5.32227 57.3477 5.31641 57.3165 5.31641L53.9884 5.39844C53.836 5.40234 53.7169 5.37695 53.6309 5.32227C53.545 5.26367 53.4805 5.1582 53.4376 5.00586L52.5001 1.8125C52.4923 1.78516 52.4805 1.77148 52.4649 1.77148C52.4532 1.77148 52.4434 1.78516 52.4356 1.8125L51.4981 5.00586C51.4552 5.1582 51.3907 5.26367 51.3048 5.32227C51.2188 5.37695 51.0997 5.40234 50.9473 5.39844L47.6192 5.31641C47.588 5.31641 47.5704 5.32227 47.5665 5.33398C47.5626 5.34961 47.5723 5.36523 47.5958 5.38086L50.3497 7.26172C50.4356 7.32031 50.4981 7.38086 50.5372 7.44336C50.5802 7.50586 50.5997 7.57617 50.5958 7.6543C50.5958 7.72852 50.5802 7.8125 50.5489 7.90625L49.4356 11.0469C49.4278 11.0703 49.4278 11.0859 49.4356 11.0938ZM63.6303 12.5117C63.4936 12.4102 63.4096 12.2734 63.3784 12.1016C63.351 11.9336 63.3764 11.7344 63.4545 11.5039L64.6616 7.92383L61.5854 5.71484C61.3862 5.57422 61.2475 5.42773 61.1694 5.27539C61.0913 5.11914 61.0795 4.95898 61.1342 4.79492C61.1889 4.63477 61.2924 4.51562 61.4448 4.4375C61.5971 4.35547 61.7963 4.31641 62.0424 4.32031L65.81 4.34375L66.9584 0.746094C67.0327 0.511719 67.1303 0.333984 67.2514 0.212891C67.3764 0.0878906 67.5229 0.0253906 67.6909 0.0253906C67.8627 0.0253906 68.0092 0.0878906 68.1303 0.212891C68.2553 0.333984 68.3549 0.511719 68.4291 0.746094L69.5776 4.34375L73.3452 4.32031C73.5913 4.31641 73.7905 4.35547 73.9428 4.4375C74.0952 4.51562 74.1987 4.63477 74.2534 4.79492C74.308 4.95898 74.2963 5.11914 74.2182 5.27539C74.1401 5.42773 74.0014 5.57422 73.8022 5.71484L70.726 7.92383L71.933 11.5039C72.0112 11.7344 72.0346 11.9336 72.0034 12.1016C71.976 12.2734 71.894 12.4102 71.7573 12.5117C71.6205 12.6211 71.4663 12.6602 71.2944 12.6289C71.1225 12.5977 70.9389 12.5117 70.7436 12.3711L67.6909 10.127L64.644 12.3711C64.4487 12.5117 64.2651 12.5977 64.0932 12.6289C63.9213 12.6602 63.767 12.6211 63.6303 12.5117ZM64.6616 11.0938C64.6694 11.1055 64.685 11.1035 64.7084 11.0879L67.351 9.04883C67.4682 8.95508 67.5815 8.9082 67.6909 8.9082C67.8041 8.9082 67.9194 8.95508 68.0366 9.04883L70.6791 11.0879C70.7026 11.1035 70.7182 11.1055 70.726 11.0938C70.7299 11.0859 70.7299 11.0703 70.726 11.0469L69.6127 7.90625C69.5815 7.8125 69.5639 7.72852 69.56 7.6543C69.56 7.57617 69.5795 7.50586 69.6186 7.44336C69.6616 7.38086 69.726 7.32031 69.812 7.26172L72.5659 5.38086C72.5893 5.36523 72.5991 5.34961 72.5952 5.33398C72.5913 5.32227 72.5737 5.31641 72.5424 5.31641L69.2143 5.39844C69.062 5.40234 68.9428 5.37695 68.8569 5.32227C68.7709 5.26367 68.7065 5.1582 68.6635 5.00586L67.726 1.8125C67.7182 1.78516 67.7065 1.77148 67.6909 1.77148C67.6791 1.77148 67.6694 1.78516 67.6616 1.8125L66.7241 5.00586C66.6811 5.1582 66.6166 5.26367 66.5307 5.32227C66.4448 5.37695 66.3256 5.40234 66.1733 5.39844L62.8452 5.31641C62.8139 5.31641 62.7963 5.32227 62.7924 5.33398C62.7885 5.34961 62.7983 5.36523 62.8217 5.38086L65.5756 7.26172C65.6616 7.32031 65.7241 7.38086 65.7631 7.44336C65.8061 7.50586 65.8256 7.57617 65.8217 7.6543C65.8217 7.72852 65.8061 7.8125 65.7748 7.90625L64.6616 11.0469C64.6538 11.0703 64.6538 11.0859 64.6616 11.0938Z" fill="#FFAF37"/>
<path d="M2.72656 12.5117L2.91409 12.2773L2.90546 12.2709L2.72656 12.5117ZM2.47461 12.1016L2.17846 12.1498L2.17945 12.1552L2.47461 12.1016ZM2.55078 11.5039L2.8349 11.6002L2.83506 11.5998L2.55078 11.5039ZM3.75781 7.92383L4.04209 8.01967L4.11295 7.80951L3.9328 7.68015L3.75781 7.92383ZM0.681641 5.71484L0.856632 5.47116L0.854646 5.46975L0.681641 5.71484ZM0.265625 5.27539L-0.00271714 5.40956L-0.00132025 5.41229L0.265625 5.27539ZM0.230469 4.79492L-0.0534438 4.69798L-0.0541363 4.70005L0.230469 4.79492ZM0.541016 4.4375L0.677938 4.7045L0.683246 4.70164L0.541016 4.4375ZM1.13867 4.32031L1.13391 4.62029L1.13681 4.62031L1.13867 4.32031ZM4.90625 4.34375L4.90438 4.64374L5.12496 4.64512L5.19204 4.43498L4.90625 4.34375ZM6.05469 0.746094L6.34048 0.837324L6.34069 0.836661L6.05469 0.746094ZM7.22656 0.212891L7.01098 0.421734L7.01782 0.428363L7.22656 0.212891ZM7.52539 0.746094L7.23939 0.836662L7.2396 0.837324L7.52539 0.746094ZM8.67383 4.34375L8.38804 4.43498L8.45512 4.64512L8.67569 4.64374L8.67383 4.34375ZM12.4414 4.32031L12.4433 4.62032L12.4462 4.62027L12.4414 4.32031ZM13.0391 4.4375L12.8968 4.70169L12.9022 4.70445L13.0391 4.4375ZM13.3496 4.79492L13.6342 4.70005L13.6335 4.69798L13.3496 4.79492ZM13.3145 5.27539L13.5814 5.41229L13.5828 5.40955L13.3145 5.27539ZM12.8984 5.71484L12.7254 5.46975L12.7235 5.47116L12.8984 5.71484ZM9.82227 7.92383L9.64728 7.68015L9.46713 7.80951L9.53799 8.01967L9.82227 7.92383ZM11.0293 11.5039L10.745 11.5998L10.7452 11.6002L11.0293 11.5039ZM11.0996 12.1016L10.8046 12.0467L10.8033 12.0544L11.0996 12.1016ZM10.8535 12.5117L10.6745 12.2707L10.6661 12.2775L10.8535 12.5117ZM9.83984 12.3711L9.66214 12.6128L9.66455 12.6146L9.83984 12.3711ZM6.78711 10.127L6.9648 9.88524L6.78694 9.75449L6.6092 9.8854L6.78711 10.127ZM3.74023 12.3711L3.91554 12.6146L3.91815 12.6126L3.74023 12.3711ZM2.90546 12.2709C2.83155 12.216 2.78779 12.147 2.76977 12.0479L2.17945 12.1552C2.22392 12.3998 2.34814 12.6043 2.54767 12.7525L2.90546 12.2709ZM2.77071 12.0534C2.75391 11.9501 2.76619 11.8029 2.8349 11.6002L2.26666 11.4076C2.17913 11.6658 2.14062 11.917 2.17851 12.1498L2.77071 12.0534ZM2.83506 11.5998L4.04209 8.01967L3.47353 7.82798L2.2665 11.4081L2.83506 11.5998ZM3.9328 7.68015L0.856626 5.47116L0.506655 5.95852L3.58283 8.16751L3.9328 7.68015ZM0.854646 5.46975C0.679283 5.34597 0.581205 5.23333 0.53257 5.1385L-0.00132025 5.41229C0.106295 5.62214 0.285561 5.80247 0.508636 5.95993L0.854646 5.46975ZM0.533953 5.14123C0.491005 5.05533 0.485833 4.97751 0.515074 4.88979L-0.0541363 4.70005C-0.13427 4.94046 -0.116005 5.18295 -0.00270317 5.40955L0.533953 5.14123ZM0.514374 4.89187C0.543612 4.80624 0.593847 4.74756 0.677911 4.70445L0.404121 4.17055C0.183497 4.28369 0.0267 4.46329 -0.0534362 4.69798L0.514374 4.89187ZM0.683246 4.70164C0.775375 4.65203 0.918671 4.61686 1.13391 4.62027L1.14343 4.02035C0.866485 4.01595 0.611344 4.0589 0.398786 4.17336L0.683246 4.70164ZM1.13681 4.62031L4.90438 4.64374L4.90812 4.04376L1.14054 4.02032L1.13681 4.62031ZM5.19204 4.43498L6.34048 0.837324L5.7689 0.654864L4.62046 4.25252L5.19204 4.43498ZM6.34069 0.836661C6.40629 0.629499 6.48427 0.500543 6.55979 0.425023L6.13552 0.000758582C5.96886 0.167426 5.85152 0.393938 5.76868 0.655526L6.34069 0.836661ZM6.55979 0.425023C6.63181 0.353002 6.70323 0.325391 6.78711 0.325391V-0.274609C6.53505 -0.274609 6.3135 -0.177221 6.13552 0.000758582L6.55979 0.425023ZM6.78711 0.325391C6.87662 0.325391 6.9457 0.354134 7.01109 0.421629L7.44203 0.00415205C7.26523 -0.178352 7.04135 -0.274609 6.78711 -0.274609V0.325391ZM7.01782 0.428363C7.09543 0.503542 7.17435 0.631264 7.23939 0.836661L7.81139 0.655526C7.728 0.392174 7.6077 0.164426 7.4353 -0.00258145L7.01782 0.428363ZM7.2396 0.837324L8.38804 4.43498L8.95962 4.25252L7.81118 0.654864L7.2396 0.837324ZM8.67569 4.64374L12.4433 4.62031L12.4395 4.02032L8.67196 4.04376L8.67569 4.64374ZM12.4462 4.62027C12.6614 4.61686 12.8047 4.65203 12.8968 4.70164L13.1813 4.17336C12.9687 4.0589 12.7136 4.01595 12.4366 4.02035L12.4462 4.62027ZM12.9022 4.70445C12.9862 4.74756 13.0365 4.80624 13.0657 4.89187L13.6335 4.69798C13.5534 4.46329 13.3966 4.28369 13.176 4.17055L12.9022 4.70445ZM13.065 4.88979C13.0942 4.97751 13.0891 5.05533 13.0461 5.14123L13.5828 5.40955C13.6961 5.18295 13.7143 4.94046 13.6342 4.70005L13.065 4.88979ZM13.0475 5.1385C12.9989 5.23333 12.9008 5.34597 12.7254 5.46975L13.0714 5.95993C13.2945 5.80247 13.4738 5.62214 13.5814 5.41229L13.0475 5.1385ZM12.7235 5.47116L9.64728 7.68015L9.99725 8.16751L13.0734 5.95852L12.7235 5.47116ZM9.53799 8.01967L10.745 11.5998L11.3136 11.4081L10.1065 7.82798L9.53799 8.01967ZM10.7452 11.6002C10.8134 11.8015 10.8234 11.9461 10.8047 12.0467L11.3945 12.1564C11.4383 11.921 11.4014 11.6673 11.3134 11.4076L10.7452 11.6002ZM10.8033 12.0544C10.788 12.1508 10.7469 12.2172 10.6746 12.2709L11.0324 12.7525C11.2336 12.6031 11.3565 12.3961 11.3959 12.1487L10.8033 12.0544ZM10.6661 12.2775C10.597 12.3328 10.5306 12.3494 10.4443 12.3337L10.337 12.9241C10.5944 12.9709 10.8366 12.9094 11.0409 12.746L10.6661 12.2775ZM10.4443 12.3337C10.3296 12.3129 10.1871 12.2515 10.0151 12.1276L9.66455 12.6146C9.88318 12.772 10.1079 12.8824 10.337 12.9241L10.4443 12.3337ZM10.0175 12.1294L6.9648 9.88524L6.60942 10.3687L9.66215 12.6128L10.0175 12.1294ZM6.6092 9.8854L3.56232 12.1295L3.91815 12.6126L6.96502 10.3685L6.6092 9.8854ZM3.56494 12.1276C3.39295 12.2515 3.25047 12.3129 3.13579 12.3337L3.24312 12.9241C3.47219 12.8824 3.69689 12.772 3.91553 12.6146L3.56494 12.1276ZM3.13579 12.3337C3.04952 12.3494 2.9831 12.3328 2.91397 12.2775L2.53915 12.746C2.74346 12.9094 2.98564 12.9709 3.24312 12.9241L3.13579 12.3337ZM17.9525 12.5117L18.14 12.2773L18.1314 12.2709L17.9525 12.5117ZM17.7005 12.1016L17.4044 12.1498L17.4054 12.1552L17.7005 12.1016ZM17.7767 11.5039L18.0608 11.6002L18.061 11.5998L17.7767 11.5039ZM18.9838 7.92383L19.268 8.01967L19.3389 7.80951L19.1587 7.68015L18.9838 7.92383ZM15.9076 5.71484L16.0826 5.47116L16.0806 5.46975L15.9076 5.71484ZM15.4916 5.27539L15.2232 5.40956L15.2246 5.41229L15.4916 5.27539ZM15.4564 4.79492L15.1725 4.69798L15.1718 4.70005L15.4564 4.79492ZM15.767 4.4375L15.9039 4.7045L15.9092 4.70164L15.767 4.4375ZM16.3646 4.32031L16.3598 4.62029L16.3627 4.62031L16.3646 4.32031ZM20.1322 4.34375L20.1303 4.64374L20.3509 4.64512L20.418 4.43498L20.1322 4.34375ZM21.2806 0.746094L21.5664 0.837324L21.5666 0.836661L21.2806 0.746094ZM22.4525 0.212891L22.2369 0.421734L22.2438 0.428363L22.4525 0.212891ZM22.7513 0.746094L22.4653 0.836662L22.4655 0.837324L22.7513 0.746094ZM23.8998 4.34375L23.614 4.43498L23.6811 4.64512L23.9016 4.64374L23.8998 4.34375ZM27.6673 4.32031L27.6692 4.62032L27.6721 4.62027L27.6673 4.32031ZM28.265 4.4375L28.1227 4.70169L28.1281 4.70445L28.265 4.4375ZM28.5755 4.79492L28.8602 4.70005L28.8595 4.69798L28.5755 4.79492ZM28.5404 5.27539L28.8074 5.41229L28.8087 5.40955L28.5404 5.27539ZM28.1244 5.71484L27.9514 5.46975L27.9494 5.47116L28.1244 5.71484ZM25.0482 7.92383L24.8732 7.68015L24.6931 7.80951L24.7639 8.01967L25.0482 7.92383ZM26.2552 11.5039L25.971 11.5998L25.9711 11.6002L26.2552 11.5039ZM26.3255 12.1016L26.0305 12.0467L26.0293 12.0544L26.3255 12.1016ZM26.0795 12.5117L25.9004 12.2707L25.892 12.2775L26.0795 12.5117ZM25.0658 12.3711L24.8881 12.6128L24.8905 12.6146L25.0658 12.3711ZM22.013 10.127L22.1907 9.88524L22.0129 9.75449L21.8351 9.8854L22.013 10.127ZM18.9662 12.3711L19.1415 12.6146L19.1441 12.6126L18.9662 12.3711ZM18.1314 12.2709C18.0575 12.216 18.0137 12.147 17.9957 12.0479L17.4054 12.1552C17.4499 12.3998 17.5741 12.6043 17.7736 12.7525L18.1314 12.2709ZM17.9966 12.0534C17.9798 11.9501 17.9921 11.8029 18.0608 11.6002L17.4926 11.4076C17.4051 11.6658 17.3666 11.917 17.4044 12.1498L17.9966 12.0534ZM18.061 11.5998L19.268 8.01967L18.6995 7.82798L17.4924 11.4081L18.061 11.5998ZM19.1587 7.68015L16.0826 5.47116L15.7326 5.95852L18.8088 8.16751L19.1587 7.68015ZM16.0806 5.46975C15.9052 5.34597 15.8071 5.23333 15.7585 5.1385L15.2246 5.41229C15.3322 5.62214 15.5115 5.80247 15.7346 5.95993L16.0806 5.46975ZM15.7599 5.14123C15.7169 5.05533 15.7118 4.97751 15.741 4.88979L15.1718 4.70005C15.0917 4.94046 15.1099 5.18295 15.2232 5.40955L15.7599 5.14123ZM15.7403 4.89187C15.7696 4.80624 15.8198 4.74756 15.9038 4.70445L15.6301 4.17055C15.4094 4.28369 15.2526 4.46329 15.1725 4.69798L15.7403 4.89187ZM15.9092 4.70164C16.0013 4.65203 16.1446 4.61686 16.3598 4.62027L16.3694 4.02035C16.0924 4.01595 15.8373 4.0589 15.6247 4.17336L15.9092 4.70164ZM16.3627 4.62031L20.1303 4.64374L20.1341 4.04376L16.3665 4.02032L16.3627 4.62031ZM20.418 4.43498L21.5664 0.837324L20.9948 0.654864L19.8464 4.25252L20.418 4.43498ZM21.5666 0.836661C21.6322 0.629499 21.7102 0.500543 21.7857 0.425023L21.3615 0.000758582C21.1948 0.167426 21.0775 0.393938 20.9946 0.655526L21.5666 0.836661ZM21.7857 0.425023C21.8577 0.353002 21.9292 0.325391 22.013 0.325391V-0.274609C21.761 -0.274609 21.5394 -0.177221 21.3615 0.000758582L21.7857 0.425023ZM22.013 0.325391C22.1026 0.325391 22.1716 0.354134 22.237 0.421629L22.668 0.00415205C22.4912 -0.178352 22.2673 -0.274609 22.013 -0.274609V0.325391ZM22.2438 0.428363C22.3214 0.503542 22.4003 0.631264 22.4653 0.836661L23.0373 0.655526C22.9539 0.392174 22.8336 0.164426 22.6612 -0.00258145L22.2438 0.428363ZM22.4655 0.837324L23.614 4.43498L24.1856 4.25252L23.0371 0.654864L22.4655 0.837324ZM23.9016 4.64374L27.6692 4.62031L27.6655 4.02032L23.8979 4.04376L23.9016 4.64374ZM27.6721 4.62027C27.8873 4.61686 28.0306 4.65203 28.1228 4.70164L28.4072 4.17336C28.1947 4.0589 27.9395 4.01595 27.6626 4.02035L27.6721 4.62027ZM28.1281 4.70445C28.2122 4.74756 28.2624 4.80624 28.2916 4.89187L28.8595 4.69798C28.7793 4.46329 28.6225 4.28369 28.4019 4.17055L28.1281 4.70445ZM28.2909 4.88979C28.3202 4.97751 28.315 5.05533 28.2721 5.14123L28.8087 5.40955C28.922 5.18295 28.9403 4.94046 28.8602 4.70005L28.2909 4.88979ZM28.2734 5.1385C28.2248 5.23333 28.1267 5.34597 27.9514 5.46975L28.2974 5.95993C28.5205 5.80247 28.6997 5.62214 28.8073 5.41229L28.2734 5.1385ZM27.9494 5.47116L24.8732 7.68015L25.2232 8.16751L28.2994 5.95852L27.9494 5.47116ZM24.7639 8.01967L25.971 11.5998L26.5395 11.4081L25.3325 7.82798L24.7639 8.01967ZM25.9711 11.6002C26.0393 11.8015 26.0493 11.9461 26.0306 12.0467L26.6205 12.1564C26.6643 11.921 26.6274 11.6673 26.5394 11.4076L25.9711 11.6002ZM26.0293 12.0544C26.0139 12.1508 25.9728 12.2172 25.9006 12.2709L26.2584 12.7525C26.4595 12.6031 26.5825 12.3961 26.6218 12.1487L26.0293 12.0544ZM25.892 12.2775C25.8229 12.3328 25.7565 12.3494 25.6702 12.3337L25.5629 12.9241C25.8204 12.9709 26.0626 12.9094 26.2669 12.746L25.892 12.2775ZM25.6702 12.3337C25.5555 12.3129 25.4131 12.2515 25.2411 12.1276L24.8905 12.6146C25.1091 12.772 25.3338 12.8824 25.5629 12.9241L25.6702 12.3337ZM25.2435 12.1294L22.1907 9.88524L21.8354 10.3687L24.8881 12.6128L25.2435 12.1294ZM21.8351 9.8854L18.7883 12.1295L19.1441 12.6126L22.191 10.3685L21.8351 9.8854ZM18.7909 12.1276C18.6189 12.2515 18.4764 12.3129 18.3617 12.3337L18.4691 12.9241C18.6981 12.8824 18.9228 12.772 19.1415 12.6146L18.7909 12.1276ZM18.3617 12.3337C18.2755 12.3494 18.209 12.3328 18.1399 12.2775L17.7651 12.746C17.9694 12.9094 18.2116 12.9709 18.4691 12.9241L18.3617 12.3337ZM33.1784 12.5117L33.366 12.2773L33.3573 12.2709L33.1784 12.5117ZM32.9265 12.1016L32.6303 12.1498L32.6313 12.1552L32.9265 12.1016ZM33.0027 11.5039L33.2868 11.6002L33.2869 11.5998L33.0027 11.5039ZM34.2097 7.92383L34.494 8.01967L34.5648 7.80951L34.3847 7.68015L34.2097 7.92383ZM31.1335 5.71484L31.3085 5.47116L31.3065 5.46975L31.1335 5.71484ZM30.7175 5.27539L30.4492 5.40956L30.4506 5.41229L30.7175 5.27539ZM30.6823 4.79492L30.3984 4.69798L30.3977 4.70005L30.6823 4.79492ZM30.9929 4.4375L31.1298 4.7045L31.1351 4.70164L30.9929 4.4375ZM31.5905 4.32031L31.5858 4.62029L31.5887 4.62031L31.5905 4.32031ZM35.3581 4.34375L35.3563 4.64374L35.5768 4.64512L35.6439 4.43498L35.3581 4.34375ZM36.5066 0.746094L36.7924 0.837324L36.7926 0.836661L36.5066 0.746094ZM37.6784 0.212891L37.4629 0.421734L37.4697 0.428363L37.6784 0.212891ZM37.9773 0.746094L37.6913 0.836662L37.6915 0.837324L37.9773 0.746094ZM39.1257 4.34375L38.8399 4.43498L38.907 4.64512L39.1276 4.64374L39.1257 4.34375ZM42.8933 4.32031L42.8951 4.62032L42.898 4.62027L42.8933 4.32031ZM43.4909 4.4375L43.3487 4.70169L43.354 4.70445L43.4909 4.4375ZM43.8015 4.79492L44.0861 4.70005L44.0854 4.69798L43.8015 4.79492ZM43.7663 5.27539L44.0333 5.41229L44.0347 5.40955L43.7663 5.27539ZM43.3503 5.71484L43.1773 5.46975L43.1753 5.47116L43.3503 5.71484ZM40.2741 7.92383L40.0992 7.68015L39.919 7.80951L39.9899 8.01967L40.2741 7.92383ZM41.4812 11.5039L41.1969 11.5998L41.1971 11.6002L41.4812 11.5039ZM41.5515 12.1016L41.2564 12.0467L41.2552 12.0544L41.5515 12.1016ZM41.3054 12.5117L41.1264 12.2707L41.118 12.2775L41.3054 12.5117ZM40.2917 12.3711L40.114 12.6128L40.1164 12.6146L40.2917 12.3711ZM37.239 10.127L37.4167 9.88524L37.2388 9.75449L37.0611 9.8854L37.239 10.127ZM34.1921 12.3711L34.3674 12.6146L34.37 12.6126L34.1921 12.3711ZM34.2097 11.0938L34.4593 10.9273L34.4428 10.9026L34.4218 10.8816L34.2097 11.0938ZM34.2566 11.0879L34.423 11.3375L34.4316 11.3317L34.4398 11.3254L34.2566 11.0879ZM36.8991 9.04883L37.0824 9.28638L37.0865 9.28309L36.8991 9.04883ZM37.5847 9.04883L37.3973 9.28312L37.4014 9.28634L37.5847 9.04883ZM40.2273 11.0879L40.044 11.3254L40.0522 11.3317L40.0609 11.3375L40.2273 11.0879ZM40.2741 11.0938L40.5238 11.2602L40.5341 11.2446L40.5425 11.2279L40.2741 11.0938ZM40.2741 11.0469L40.5701 10.9976L40.5657 10.9715L40.5569 10.9466L40.2741 11.0469ZM39.1609 7.90625L38.8762 8.00114L38.8781 8.00648L39.1609 7.90625ZM39.1081 7.6543H38.8081V7.66219L38.8085 7.67006L39.1081 7.6543ZM39.1667 7.44336L38.9193 7.27324L38.9123 7.28436L39.1667 7.44336ZM39.3601 7.26172L39.5291 7.50959L39.5293 7.50945L39.3601 7.26172ZM42.114 5.38086L41.9476 5.13123L41.9448 5.13313L42.114 5.38086ZM42.1433 5.33398L42.4343 5.26122L42.4315 5.25005L42.4279 5.23912L42.1433 5.33398ZM42.0905 5.31641V5.01632L42.0832 5.0165L42.0905 5.31641ZM38.7624 5.39844L38.755 5.09853L38.7547 5.09854L38.7624 5.39844ZM38.405 5.32227L38.2359 5.57026L38.2439 5.57536L38.405 5.32227ZM38.2116 5.00586L38.5004 4.92442L38.4995 4.92135L38.2116 5.00586ZM37.2741 1.8125L36.9857 1.89492L36.9863 1.89701L37.2741 1.8125ZM37.2097 1.8125L37.4975 1.89701L37.4981 1.89492L37.2097 1.8125ZM36.2722 5.00586L35.9843 4.92135L35.9835 4.92442L36.2722 5.00586ZM36.0788 5.32227L36.24 5.57549L36.2478 5.57013L36.0788 5.32227ZM35.7214 5.39844L35.7291 5.09854L35.7288 5.09853L35.7214 5.39844ZM32.3933 5.31641L32.4007 5.01641H32.3933V5.31641ZM32.3405 5.33398L32.0559 5.23912L32.0523 5.25005L32.0495 5.26122L32.3405 5.33398ZM32.3698 5.38086L32.5391 5.13311L32.5363 5.13124L32.3698 5.38086ZM35.1238 7.26172L34.9546 7.50945L34.9547 7.50959L35.1238 7.26172ZM35.3113 7.44336L35.0566 7.60251L35.064 7.61332L35.3113 7.44336ZM35.3698 7.6543L35.0702 7.63932L35.0698 7.6468V7.6543H35.3698ZM35.323 7.90625L35.6058 8.0065L35.6076 8.00112L35.323 7.90625ZM34.2097 11.0469L33.9269 10.9466L33.9251 10.952L34.2097 11.0469ZM33.3573 12.2709C33.2834 12.216 33.2397 12.147 33.2216 12.0479L32.6313 12.1552C32.6758 12.3998 32.8 12.6043 32.9995 12.7525L33.3573 12.2709ZM33.2226 12.0534C33.2058 11.9501 33.2181 11.8029 33.2868 11.6002L32.7185 11.4076C32.631 11.6658 32.5925 11.917 32.6304 12.1498L33.2226 12.0534ZM33.2869 11.5998L34.494 8.01967L33.9254 7.82798L32.7184 11.4081L33.2869 11.5998ZM34.3847 7.68015L31.3085 5.47116L30.9585 5.95852L34.0347 8.16751L34.3847 7.68015ZM31.3065 5.46975C31.1312 5.34597 31.0331 5.23333 30.9844 5.1385L30.4506 5.41229C30.5582 5.62214 30.7374 5.80247 30.9605 5.95993L31.3065 5.46975ZM30.9858 5.14123C30.9429 5.05533 30.9377 4.97751 30.9669 4.88979L30.3977 4.70005C30.3176 4.94046 30.3359 5.18295 30.4492 5.40955L30.9858 5.14123ZM30.9662 4.89187C30.9955 4.80624 31.0457 4.74756 31.1298 4.70445L30.856 4.17055C30.6354 4.28369 30.4786 4.46329 30.3984 4.69798L30.9662 4.89187ZM31.1351 4.70164C31.2273 4.65203 31.3705 4.61686 31.5858 4.62027L31.5953 4.02035C31.3184 4.01595 31.0632 4.0589 30.8507 4.17336L31.1351 4.70164ZM31.5887 4.62031L35.3563 4.64374L35.36 4.04376L31.5924 4.02032L31.5887 4.62031ZM35.6439 4.43498L36.7924 0.837324L36.2208 0.654864L35.0723 4.25252L35.6439 4.43498ZM36.7926 0.836661C36.8582 0.629499 36.9361 0.500543 37.0117 0.425023L36.5874 0.000758582C36.4207 0.167426 36.3034 0.393938 36.2206 0.655526L36.7926 0.836661ZM37.0117 0.425023C37.0837 0.353002 37.1551 0.325391 37.239 0.325391V-0.274609C36.9869 -0.274609 36.7654 -0.177221 36.5874 0.000758582L37.0117 0.425023ZM37.239 0.325391C37.3285 0.325391 37.3976 0.354134 37.463 0.421629L37.8939 0.00415205C37.7171 -0.178352 37.4932 -0.274609 37.239 -0.274609V0.325391ZM37.4697 0.428363C37.5473 0.503542 37.6262 0.631264 37.6913 0.836661L38.2633 0.655526C38.1799 0.392174 38.0596 0.164426 37.8872 -0.00258145L37.4697 0.428363ZM37.6915 0.837324L38.8399 4.43498L39.4115 4.25252L38.2631 0.654864L37.6915 0.837324ZM39.1276 4.64374L42.8951 4.62031L42.8914 4.02032L39.1238 4.04376L39.1276 4.64374ZM42.898 4.62027C43.1133 4.61686 43.2566 4.65203 43.3487 4.70164L43.6332 4.17336C43.4206 4.0589 43.1655 4.01595 42.8885 4.02035L42.898 4.62027ZM43.354 4.70445C43.4381 4.74756 43.4883 4.80624 43.5176 4.89187L44.0854 4.69798C44.0053 4.46329 43.8485 4.28369 43.6278 4.17055L43.354 4.70445ZM43.5169 4.88979C43.5461 4.97751 43.5409 5.05533 43.498 5.14123L44.0347 5.40955C44.148 5.18295 44.1662 4.94046 44.0861 4.70005L43.5169 4.88979ZM43.4994 5.1385C43.4507 5.23333 43.3527 5.34597 43.1773 5.46975L43.5233 5.95993C43.7464 5.80247 43.9257 5.62214 44.0333 5.41229L43.4994 5.1385ZM43.1753 5.47116L40.0992 7.68015L40.4491 8.16751L43.5253 5.95852L43.1753 5.47116ZM39.9899 8.01967L41.1969 11.5998L41.7655 11.4081L40.5584 7.82798L39.9899 8.01967ZM41.1971 11.6002C41.2653 11.8015 41.2753 11.9461 41.2565 12.0467L41.8464 12.1564C41.8902 11.921 41.8533 11.6673 41.7653 11.4076L41.1971 11.6002ZM41.2552 12.0544C41.2399 12.1508 41.1988 12.2172 41.1265 12.2709L41.4843 12.7525C41.6855 12.6031 41.8084 12.3961 41.8478 12.1487L41.2552 12.0544ZM41.118 12.2775C41.0489 12.3328 40.9824 12.3494 40.8962 12.3337L40.7888 12.9241C41.0463 12.9709 41.2885 12.9094 41.4928 12.746L41.118 12.2775ZM40.8962 12.3337C40.7815 12.3129 40.639 12.2515 40.467 12.1276L40.1164 12.6146C40.3351 12.772 40.5598 12.8824 40.7888 12.9241L40.8962 12.3337ZM40.4694 12.1294L37.4167 9.88524L37.0613 10.3687L40.114 12.6128L40.4694 12.1294ZM37.0611 9.8854L34.0142 12.1295L34.37 12.6126L37.4169 10.3685L37.0611 9.8854ZM34.0168 12.1276C33.8448 12.2515 33.7023 12.3129 33.5877 12.3337L33.695 12.9241C33.9241 12.8824 34.1488 12.772 34.3674 12.6146L34.0168 12.1276ZM33.5877 12.3337C33.5014 12.3494 33.435 12.3328 33.3658 12.2775L32.991 12.746C33.1953 12.9094 33.4375 12.9709 33.695 12.9241L33.5877 12.3337ZM33.9601 11.2602C33.9911 11.3068 34.0381 11.3504 34.1016 11.3769C34.163 11.4025 34.2211 11.4042 34.2645 11.3988C34.3418 11.3891 34.3985 11.3538 34.423 11.3375L34.0902 10.8383C34.0912 10.8376 34.1283 10.8111 34.1901 10.8034C34.2256 10.7989 34.2768 10.7999 34.3324 10.8231C34.39 10.8471 34.4321 10.8866 34.4593 10.9273L33.9601 11.2602ZM34.4398 11.3254L37.0824 9.28634L36.7159 8.81132L34.0733 10.8504L34.4398 11.3254ZM37.0865 9.28309C37.1702 9.2162 37.2192 9.2082 37.239 9.2082V8.6082C37.04 8.6082 36.8625 8.69395 36.7117 8.81457L37.0865 9.28309ZM37.239 9.2082C37.2648 9.2082 37.316 9.21803 37.3973 9.28309L37.7721 8.81457C37.619 8.69213 37.4397 8.6082 37.239 8.6082V9.2082ZM37.4014 9.28634L40.044 11.3254L40.4105 10.8504L37.768 8.81132L37.4014 9.28634ZM40.0609 11.3375C40.0853 11.3538 40.142 11.3891 40.2194 11.3988C40.2627 11.4042 40.3208 11.4025 40.3822 11.3769C40.4457 11.3504 40.4927 11.3068 40.5238 11.2602L40.0245 10.9273C40.0517 10.8866 40.0938 10.8471 40.1514 10.8231C40.207 10.7999 40.2582 10.7989 40.2938 10.8034C40.3555 10.8111 40.3926 10.8376 40.3937 10.8383L40.0609 11.3375ZM40.5425 11.2279C40.5758 11.1613 40.5771 11.0993 40.5771 11.0762C40.5771 11.0457 40.5735 11.0181 40.5701 10.9976L39.9782 11.0962C39.9787 11.0991 39.9771 11.091 39.9771 11.0762C39.9771 11.0684 39.9775 11.0546 39.9804 11.0371C39.9832 11.0204 39.9896 10.992 40.0058 10.9596L40.5425 11.2279ZM40.5569 10.9466L39.4436 7.80602L38.8781 8.00648L39.9914 11.1471L40.5569 10.9466ZM39.4455 7.81138C39.4201 7.73535 39.4098 7.67865 39.4077 7.63853L38.8085 7.67006C38.8142 7.77838 38.8391 7.88965 38.8763 8.00112L39.4455 7.81138ZM39.4081 7.6543C39.4081 7.62887 39.4137 7.61428 39.4211 7.60236L38.9123 7.28436C38.8416 7.39744 38.8081 7.52347 38.8081 7.6543H39.4081ZM39.4139 7.61332C39.4296 7.59046 39.4632 7.55452 39.5291 7.50959L39.1911 7.01385C39.0851 7.08611 38.9897 7.17126 38.9195 7.2734L39.4139 7.61332ZM39.5293 7.50945L42.2832 5.62859L41.9448 5.13313L39.1909 7.01398L39.5293 7.50945ZM42.2804 5.63047C42.3222 5.60261 42.4883 5.47728 42.4343 5.26122L41.8522 5.40675C41.8315 5.32391 41.853 5.24882 41.8845 5.19842C41.9109 5.15615 41.9408 5.13577 41.9476 5.13124L42.2804 5.63047ZM42.4279 5.23912C42.3834 5.10567 42.274 5.05351 42.222 5.0362C42.1688 5.01844 42.1195 5.01641 42.0905 5.01641V5.61641C42.0894 5.61641 42.0841 5.61638 42.0757 5.61537C42.0678 5.61442 42.0522 5.61203 42.0323 5.60541C41.9979 5.59395 41.8993 5.55058 41.8587 5.42885L42.4279 5.23912ZM42.0832 5.0165L38.755 5.09853L38.7698 5.69835L42.0979 5.61632L42.0832 5.0165ZM38.7547 5.09854C38.6342 5.10163 38.5824 5.07957 38.5661 5.06917L38.2439 5.57536C38.3995 5.67433 38.5859 5.70306 38.7701 5.69834L38.7547 5.09854ZM38.574 5.0744C38.5699 5.07163 38.5338 5.04286 38.5004 4.92442L37.9229 5.0873C37.9754 5.27355 38.0682 5.45572 38.236 5.57013L38.574 5.0744ZM38.4995 4.92135L37.562 1.72799L36.9863 1.89701L37.9238 5.09037L38.4995 4.92135ZM37.5626 1.73008C37.553 1.69634 37.5328 1.63967 37.4873 1.5865C37.4341 1.52444 37.3482 1.47148 37.239 1.47148V2.07148C37.1454 2.07148 37.0732 2.02536 37.0317 1.97698C36.9979 1.93748 36.9875 1.90132 36.9857 1.89492L37.5626 1.73008ZM37.239 1.47148C37.0988 1.47148 37.0139 1.5581 36.9788 1.60737C36.9448 1.65487 36.929 1.703 36.9212 1.73008L37.4981 1.89492C37.4975 1.89713 37.4956 1.90357 37.4917 1.91273C37.4879 1.92139 37.4804 1.93735 37.467 1.95611C37.4416 1.99171 37.3674 2.07148 37.239 2.07148V1.47148ZM36.9218 1.72799L35.9843 4.92135L36.56 5.09037L37.4975 1.89701L36.9218 1.72799ZM35.9835 4.92442C35.95 5.04286 35.9139 5.07163 35.9098 5.0744L36.2478 5.57013C36.4156 5.45572 36.5084 5.27355 36.5609 5.0873L35.9835 4.92442ZM35.9178 5.06917C35.9014 5.07957 35.8496 5.10163 35.7291 5.09854L35.7137 5.69834C35.8979 5.70306 36.0844 5.67433 36.2399 5.57536L35.9178 5.06917ZM35.7288 5.09853L32.4007 5.0165L32.3859 5.61632L35.714 5.69835L35.7288 5.09853ZM32.3933 5.01641C32.3643 5.01641 32.3151 5.01844 32.2618 5.0362C32.2098 5.05351 32.1004 5.10567 32.0559 5.23912L32.6252 5.42885C32.5846 5.55058 32.4859 5.59395 32.4515 5.60541C32.4317 5.61203 32.4161 5.61442 32.4082 5.61537C32.3997 5.61638 32.3944 5.61641 32.3933 5.61641V5.01641ZM32.0495 5.26122C31.9955 5.47728 32.1616 5.60261 32.2034 5.63047L32.5363 5.13124C32.5431 5.13577 32.5729 5.15615 32.5993 5.19842C32.6308 5.24882 32.6523 5.32391 32.6316 5.40675L32.0495 5.26122ZM32.2006 5.62859L34.9546 7.50945L35.2929 7.01398L32.539 5.13313L32.2006 5.62859ZM34.9547 7.50959C35.0195 7.55373 35.0469 7.58641 35.0569 7.60236L35.5657 7.28436C35.4975 7.1753 35.3999 7.0869 35.2928 7.01385L34.9547 7.50959ZM35.064 7.61332C35.0685 7.61979 35.0709 7.6247 35.0702 7.63932L35.6695 7.66928C35.6766 7.52764 35.64 7.39193 35.5585 7.2734L35.064 7.61332ZM35.0698 7.6543C35.0698 7.68759 35.0626 7.73872 35.0384 7.81138L35.6076 8.00112C35.6459 7.88628 35.6698 7.76944 35.6698 7.6543H35.0698ZM35.0402 7.80602L33.9269 10.9466L34.4924 11.1471L35.6057 8.00648L35.0402 7.80602ZM33.9251 10.952C33.9162 10.9787 33.9038 11.023 33.9038 11.0762C33.9038 11.1302 33.9175 11.2259 33.9976 11.3059L34.4218 10.8816C34.494 10.9538 34.5038 11.0377 34.5038 11.0762C34.5038 11.1137 34.4954 11.1385 34.4943 11.1417L33.9251 10.952ZM48.4044 12.5117L48.5919 12.2773L48.5833 12.2709L48.4044 12.5117ZM48.1524 12.1016L47.8563 12.1498L47.8573 12.1552L48.1524 12.1016ZM48.2286 11.5039L48.5127 11.6002L48.5129 11.5998L48.2286 11.5039ZM49.4356 7.92383L49.7199 8.01967L49.7908 7.80951L49.6106 7.68015L49.4356 7.92383ZM46.3595 5.71484L46.5344 5.47116L46.5325 5.46975L46.3595 5.71484ZM45.9434 5.27539L45.6751 5.40956L45.6765 5.41229L45.9434 5.27539ZM45.9083 4.79492L45.6244 4.69798L45.6237 4.70005L45.9083 4.79492ZM46.2188 4.4375L46.3557 4.7045L46.3611 4.70164L46.2188 4.4375ZM46.8165 4.32031L46.8117 4.62029L46.8146 4.62031L46.8165 4.32031ZM50.5841 4.34375L50.5822 4.64374L50.8028 4.64512L50.8699 4.43498L50.5841 4.34375ZM51.7325 0.746094L52.0183 0.837324L52.0185 0.836661L51.7325 0.746094ZM52.9044 0.212891L52.6888 0.421734L52.6956 0.428363L52.9044 0.212891ZM53.2032 0.746094L52.9172 0.836662L52.9174 0.837324L53.2032 0.746094ZM54.3516 4.34375L54.0658 4.43498L54.1329 4.64512L54.3535 4.64374L54.3516 4.34375ZM58.1192 4.32031L58.1211 4.62032L58.124 4.62027L58.1192 4.32031ZM58.7169 4.4375L58.5746 4.70169L58.58 4.70445L58.7169 4.4375ZM59.0274 4.79492L59.312 4.70005L59.3113 4.69798L59.0274 4.79492ZM58.9923 5.27539L59.2592 5.41229L59.2606 5.40955L58.9923 5.27539ZM58.5762 5.71484L58.4032 5.46975L58.4013 5.47116L58.5762 5.71484ZM55.5001 7.92383L55.3251 7.68015L55.1449 7.80951L55.2158 8.01967L55.5001 7.92383ZM56.7071 11.5039L56.4228 11.5998L56.423 11.6002L56.7071 11.5039ZM56.7774 12.1016L56.4824 12.0467L56.4811 12.0544L56.7774 12.1016ZM56.5313 12.5117L56.3523 12.2707L56.3439 12.2775L56.5313 12.5117ZM55.5177 12.3711L55.34 12.6128L55.3424 12.6146L55.5177 12.3711ZM52.4649 10.127L52.6426 9.88524L52.4647 9.75449L52.287 9.8854L52.4649 10.127ZM49.418 12.3711L49.5933 12.6146L49.596 12.6126L49.418 12.3711ZM49.4356 11.0938L49.6852 10.9273L49.6688 10.9026L49.6478 10.8816L49.4356 11.0938ZM49.4825 11.0879L49.6489 11.3375L49.6575 11.3317L49.6658 11.3254L49.4825 11.0879ZM52.1251 9.04883L52.3084 9.28638L52.3125 9.28309L52.1251 9.04883ZM52.8106 9.04883L52.6232 9.28312L52.6274 9.28634L52.8106 9.04883ZM55.4532 11.0879L55.2699 11.3254L55.2782 11.3317L55.2868 11.3375L55.4532 11.0879ZM55.5001 11.0938L55.7497 11.2602L55.7601 11.2446L55.7684 11.2279L55.5001 11.0938ZM55.5001 11.0469L55.796 10.9976L55.7917 10.9715L55.7828 10.9466L55.5001 11.0469ZM54.3868 7.90625L54.1021 8.00114L54.104 8.00648L54.3868 7.90625ZM54.3341 7.6543H54.0341V7.66219L54.0345 7.67006L54.3341 7.6543ZM54.3927 7.44336L54.1452 7.27324L54.1383 7.28436L54.3927 7.44336ZM54.586 7.26172L54.755 7.50959L54.7552 7.50945L54.586 7.26172ZM57.3399 5.38086L57.1735 5.13123L57.1707 5.13313L57.3399 5.38086ZM57.3692 5.33398L57.6603 5.26122L57.6575 5.25005L57.6538 5.23912L57.3692 5.33398ZM57.3165 5.31641V5.01632L57.3091 5.0165L57.3165 5.31641ZM53.9884 5.39844L53.981 5.09853L53.9807 5.09854L53.9884 5.39844ZM53.6309 5.32227L53.4618 5.57026L53.4699 5.57536L53.6309 5.32227ZM53.4376 5.00586L53.7263 4.92442L53.7254 4.92135L53.4376 5.00586ZM52.5001 1.8125L52.2116 1.89492L52.2122 1.89701L52.5001 1.8125ZM52.4356 1.8125L52.7235 1.89701L52.7241 1.89492L52.4356 1.8125ZM51.4981 5.00586L51.2103 4.92135L51.2094 4.92442L51.4981 5.00586ZM51.3048 5.32227L51.4659 5.57549L51.4738 5.57013L51.3048 5.32227ZM50.9473 5.39844L50.955 5.09854L50.9547 5.09853L50.9473 5.39844ZM47.6192 5.31641L47.6266 5.01641H47.6192V5.31641ZM47.5665 5.33398L47.2819 5.23912L47.2782 5.25005L47.2754 5.26122L47.5665 5.33398ZM47.5958 5.38086L47.765 5.13311L47.7622 5.13124L47.5958 5.38086ZM50.3497 7.26172L50.1805 7.50945L50.1807 7.50959L50.3497 7.26172ZM50.5372 7.44336L50.2825 7.60251L50.29 7.61332L50.5372 7.44336ZM50.5958 7.6543L50.2962 7.63932L50.2958 7.6468V7.6543H50.5958ZM50.5489 7.90625L50.8317 8.0065L50.8335 8.00112L50.5489 7.90625ZM49.4356 11.0469L49.1528 10.9466L49.151 10.952L49.4356 11.0469ZM48.5833 12.2709C48.5094 12.216 48.4656 12.147 48.4476 12.0479L47.8573 12.1552C47.9017 12.3998 48.0259 12.6043 48.2255 12.7525L48.5833 12.2709ZM48.4485 12.0534C48.4317 11.9501 48.444 11.8029 48.5127 11.6002L47.9445 11.4076C47.8569 11.6658 47.8184 11.917 47.8563 12.1498L48.4485 12.0534ZM48.5129 11.5998L49.7199 8.01967L49.1513 7.82798L47.9443 11.4081L48.5129 11.5998ZM49.6106 7.68015L46.5344 5.47116L46.1845 5.95852L49.2606 8.16751L49.6106 7.68015ZM46.5325 5.46975C46.3571 5.34597 46.259 5.23333 46.2104 5.1385L45.6765 5.41229C45.7841 5.62214 45.9634 5.80247 46.1864 5.95993L46.5325 5.46975ZM46.2118 5.14123C46.1688 5.05533 46.1636 4.97751 46.1929 4.88979L45.6237 4.70005C45.5435 4.94046 45.5618 5.18295 45.6751 5.40955L46.2118 5.14123ZM46.1922 4.89187C46.2214 4.80624 46.2717 4.74756 46.3557 4.70445L46.0819 4.17055C45.8613 4.28369 45.7045 4.46329 45.6244 4.69798L46.1922 4.89187ZM46.3611 4.70164C46.4532 4.65203 46.5965 4.61686 46.8117 4.62027L46.8212 4.02035C46.5443 4.01595 46.2892 4.0589 46.0766 4.17336L46.3611 4.70164ZM46.8146 4.62031L50.5822 4.64374L50.5859 4.04376L46.8183 4.02032L46.8146 4.62031ZM50.8699 4.43498L52.0183 0.837324L51.4467 0.654864L50.2983 4.25252L50.8699 4.43498ZM52.0185 0.836661C52.0841 0.629499 52.1621 0.500543 52.2376 0.425023L51.8133 0.000758582C51.6467 0.167426 51.5293 0.393938 51.4465 0.655526L52.0185 0.836661ZM52.2376 0.425023C52.3096 0.353002 52.381 0.325391 52.4649 0.325391V-0.274609C52.2129 -0.274609 51.9913 -0.177221 51.8133 0.000758582L52.2376 0.425023ZM52.4649 0.325391C52.5544 0.325391 52.6235 0.354134 52.6889 0.421629L53.1198 0.00415205C52.943 -0.178352 52.7192 -0.274609 52.4649 -0.274609V0.325391ZM52.6956 0.428363C52.7732 0.503542 52.8522 0.631264 52.9172 0.836661L53.4892 0.655526C53.4058 0.392174 53.2855 0.164426 53.1131 -0.00258145L52.6956 0.428363ZM52.9174 0.837324L54.0658 4.43498L54.6374 4.25252L53.489 0.654864L52.9174 0.837324ZM54.3535 4.64374L58.1211 4.62031L58.1174 4.02032L54.3498 4.04376L54.3535 4.64374ZM58.124 4.62027C58.3392 4.61686 58.4825 4.65203 58.5746 4.70164L58.8591 4.17336C58.6465 4.0589 58.3914 4.01595 58.1145 4.02035L58.124 4.62027ZM58.58 4.70445C58.664 4.74756 58.7143 4.80624 58.7435 4.89187L59.3113 4.69798C59.2312 4.46329 59.0744 4.28369 58.8538 4.17055L58.58 4.70445ZM58.7428 4.88979C58.7721 4.97751 58.7669 5.05533 58.7239 5.14123L59.2606 5.40955C59.3739 5.18295 59.3922 4.94046 59.312 4.70005L58.7428 4.88979ZM58.7253 5.1385C58.6767 5.23333 58.5786 5.34597 58.4032 5.46975L58.7493 5.95993C58.9723 5.80247 59.1516 5.62214 59.2592 5.41229L58.7253 5.1385ZM58.4013 5.47116L55.3251 7.68015L55.6751 8.16751L58.7512 5.95852L58.4013 5.47116ZM55.2158 8.01967L56.4228 11.5998L56.9914 11.4081L55.7844 7.82798L55.2158 8.01967ZM56.423 11.6002C56.4912 11.8015 56.5012 11.9461 56.4825 12.0467L57.0724 12.1564C57.1162 11.921 57.0793 11.6673 56.9912 11.4076L56.423 11.6002ZM56.4811 12.0544C56.4658 12.1508 56.4247 12.2172 56.3524 12.2709L56.7102 12.7525C56.9114 12.6031 57.0343 12.3961 57.0737 12.1487L56.4811 12.0544ZM56.3439 12.2775C56.2748 12.3328 56.2084 12.3494 56.1221 12.3337L56.0148 12.9241C56.2723 12.9709 56.5144 12.9094 56.7187 12.746L56.3439 12.2775ZM56.1221 12.3337C56.0074 12.3129 55.8649 12.2515 55.6929 12.1276L55.3424 12.6146C55.561 12.772 55.7857 12.8824 56.0148 12.9241L56.1221 12.3337ZM55.6953 12.1294L52.6426 9.88524L52.2872 10.3687L55.34 12.6128L55.6953 12.1294ZM52.287 9.8854L49.2401 12.1295L49.596 12.6126L52.6428 10.3685L52.287 9.8854ZM49.2428 12.1276C49.0708 12.2515 48.9283 12.3129 48.8136 12.3337L48.9209 12.9241C49.15 12.8824 49.3747 12.772 49.5933 12.6146L49.2428 12.1276ZM48.8136 12.3337C48.7273 12.3494 48.6609 12.3328 48.5918 12.2775L48.217 12.746C48.4213 12.9094 48.6634 12.9709 48.9209 12.9241L48.8136 12.3337ZM49.186 11.2602C49.2171 11.3068 49.2641 11.3504 49.3276 11.3769C49.389 11.4025 49.447 11.4042 49.4904 11.3988C49.5678 11.3891 49.6244 11.3538 49.6489 11.3375L49.3161 10.8383C49.3171 10.8376 49.3543 10.8111 49.416 10.8034C49.4516 10.7989 49.5028 10.7999 49.5583 10.8231C49.616 10.8471 49.6581 10.8866 49.6852 10.9273L49.186 11.2602ZM49.6658 11.3254L52.3083 9.28634L51.9418 8.81132L49.2992 10.8504L49.6658 11.3254ZM52.3125 9.28309C52.3961 9.2162 52.4451 9.2082 52.4649 9.2082V8.6082C52.266 8.6082 52.0884 8.69395 51.9377 8.81457L52.3125 9.28309ZM52.4649 9.2082C52.4908 9.2082 52.5419 9.21803 52.6232 9.28309L52.998 8.81457C52.845 8.69213 52.6656 8.6082 52.4649 8.6082V9.2082ZM52.6274 9.28634L55.2699 11.3254L55.6365 10.8504L52.9939 8.81132L52.6274 9.28634ZM55.2868 11.3375C55.3113 11.3538 55.3679 11.3891 55.4453 11.3988C55.4887 11.4042 55.5467 11.4025 55.6081 11.3769C55.6716 11.3504 55.7186 11.3068 55.7497 11.2602L55.2505 10.9273C55.2776 10.8866 55.3197 10.8471 55.3774 10.8231C55.4329 10.7999 55.4841 10.7989 55.5197 10.8034C55.5814 10.8111 55.6186 10.8376 55.6196 10.8383L55.2868 11.3375ZM55.7684 11.2279C55.8017 11.1613 55.803 11.0993 55.803 11.0762C55.803 11.0457 55.7994 11.0181 55.796 10.9976L55.2042 11.0962C55.2046 11.0991 55.203 11.091 55.203 11.0762C55.203 11.0684 55.2034 11.0546 55.2064 11.0371C55.2091 11.0204 55.2155 10.992 55.2317 10.9596L55.7684 11.2279ZM55.7828 10.9466L54.6696 7.80602L54.104 8.00648L55.2173 11.1471L55.7828 10.9466ZM54.6714 7.81138C54.6461 7.73535 54.6358 7.67865 54.6336 7.63853L54.0345 7.67006C54.0402 7.77838 54.065 7.88965 54.1022 8.00112L54.6714 7.81138ZM54.6341 7.6543C54.6341 7.62887 54.6396 7.61428 54.6471 7.60236L54.1383 7.28436C54.0676 7.39744 54.0341 7.52347 54.0341 7.6543H54.6341ZM54.6399 7.61332C54.6556 7.59046 54.6891 7.55452 54.755 7.50959L54.417 7.01385C54.311 7.08611 54.2157 7.17126 54.1454 7.2734L54.6399 7.61332ZM54.7552 7.50945L57.5091 5.62859L57.1707 5.13313L54.4168 7.01398L54.7552 7.50945ZM57.5063 5.63047C57.5481 5.60261 57.7143 5.47728 57.6603 5.26122L57.0782 5.40675C57.0575 5.32391 57.0789 5.24882 57.1104 5.19842C57.1368 5.15615 57.1667 5.13577 57.1735 5.13124L57.5063 5.63047ZM57.6538 5.23912C57.6093 5.10567 57.4999 5.05351 57.448 5.0362C57.3947 5.01844 57.3454 5.01641 57.3165 5.01641V5.61641C57.3154 5.61641 57.31 5.61638 57.3016 5.61537C57.2937 5.61442 57.2781 5.61203 57.2582 5.60541C57.2239 5.59395 57.1252 5.55058 57.0846 5.42885L57.6538 5.23912ZM57.3091 5.0165L53.981 5.09853L53.9957 5.69835L57.3239 5.61632L57.3091 5.0165ZM53.9807 5.09854C53.8602 5.10163 53.8084 5.07957 53.792 5.06917L53.4699 5.57536C53.6254 5.67433 53.8119 5.70306 53.996 5.69834L53.9807 5.09854ZM53.7999 5.0744C53.7959 5.07163 53.7597 5.04286 53.7263 4.92442L53.1488 5.0873C53.2014 5.27355 53.2941 5.45572 53.4619 5.57013L53.7999 5.0744ZM53.7254 4.92135L52.7879 1.72799L52.2122 1.89701L53.1497 5.09037L53.7254 4.92135ZM52.7885 1.73008C52.7789 1.69634 52.7588 1.63967 52.7132 1.5865C52.66 1.52444 52.5741 1.47148 52.4649 1.47148V2.07148C52.3713 2.07148 52.2991 2.02536 52.2577 1.97698C52.2238 1.93748 52.2134 1.90132 52.2116 1.89492L52.7885 1.73008ZM52.4649 1.47148C52.3247 1.47148 52.2399 1.5581 52.2047 1.60737C52.1708 1.65487 52.1549 1.703 52.1472 1.73008L52.7241 1.89492C52.7234 1.89713 52.7215 1.90357 52.7176 1.91273C52.7139 1.92139 52.7063 1.93735 52.6929 1.95611C52.6675 1.99171 52.5934 2.07148 52.4649 2.07148V1.47148ZM52.1478 1.72799L51.2103 4.92135L51.786 5.09037L52.7235 1.89701L52.1478 1.72799ZM51.2094 4.92442C51.176 5.04286 51.1398 5.07163 51.1358 5.0744L51.4738 5.57013C51.6416 5.45572 51.7343 5.27355 51.7869 5.0873L51.2094 4.92442ZM51.1437 5.06917C51.1273 5.07957 51.0755 5.10163 50.955 5.09854L50.9397 5.69834C51.1238 5.70306 51.3103 5.67433 51.4658 5.57536L51.1437 5.06917ZM50.9547 5.09853L47.6266 5.0165L47.6118 5.61632L50.9399 5.69835L50.9547 5.09853ZM47.6192 5.01641C47.5903 5.01641 47.541 5.01844 47.4877 5.0362C47.4358 5.05351 47.3264 5.10567 47.2819 5.23912L47.8511 5.42885C47.8105 5.55058 47.7118 5.59395 47.6775 5.60541C47.6576 5.61203 47.642 5.61442 47.6341 5.61537C47.6257 5.61638 47.6203 5.61641 47.6192 5.61641V5.01641ZM47.2754 5.26122C47.2214 5.47728 47.3876 5.60261 47.4294 5.63047L47.7622 5.13124C47.769 5.13577 47.7989 5.15615 47.8253 5.19842C47.8568 5.24882 47.8782 5.32391 47.8575 5.40675L47.2754 5.26122ZM47.4266 5.62859L50.1805 7.50945L50.5189 7.01398L47.765 5.13313L47.4266 5.62859ZM50.1807 7.50959C50.2454 7.55373 50.2728 7.58641 50.2828 7.60236L50.7916 7.28436C50.7234 7.1753 50.6258 7.0869 50.5187 7.01385L50.1807 7.50959ZM50.29 7.61332C50.2944 7.61979 50.2969 7.6247 50.2962 7.63932L50.8954 7.66928C50.9025 7.52764 50.8659 7.39193 50.7844 7.2734L50.29 7.61332ZM50.2958 7.6543C50.2958 7.68759 50.2885 7.73872 50.2643 7.81138L50.8335 8.00112C50.8718 7.88628 50.8958 7.76944 50.8958 7.6543H50.2958ZM50.2661 7.80602L49.1529 10.9466L49.7184 11.1471L50.8317 8.00648L50.2661 7.80602ZM49.151 10.952C49.1421 10.9787 49.1298 11.023 49.1298 11.0762C49.1298 11.1302 49.1435 11.2259 49.2235 11.3059L49.6478 10.8816C49.72 10.9538 49.7298 11.0377 49.7298 11.0762C49.7298 11.1137 49.7213 11.1385 49.7202 11.1417L49.151 10.952ZM63.6303 12.5117L63.8178 12.2773L63.8092 12.2709L63.6303 12.5117ZM63.3784 12.1016L63.0822 12.1498L63.0832 12.1552L63.3784 12.1016ZM63.4545 11.5039L63.7387 11.6002L63.7388 11.5998L63.4545 11.5039ZM64.6616 7.92383L64.9458 8.01967L65.0167 7.80951L64.8365 7.68015L64.6616 7.92383ZM61.5854 5.71484L61.7604 5.47116L61.7584 5.46975L61.5854 5.71484ZM61.1694 5.27539L60.901 5.40956L60.9024 5.41229L61.1694 5.27539ZM61.1342 4.79492L60.8503 4.69798L60.8496 4.70005L61.1342 4.79492ZM61.4448 4.4375L61.5817 4.7045L61.587 4.70164L61.4448 4.4375ZM62.0424 4.32031L62.0377 4.62029L62.0406 4.62031L62.0424 4.32031ZM65.81 4.34375L65.8081 4.64374L66.0287 4.64512L66.0958 4.43498L65.81 4.34375ZM66.9584 0.746094L67.2442 0.837324L67.2444 0.836661L66.9584 0.746094ZM68.1303 0.212891L67.9147 0.421734L67.9216 0.428363L68.1303 0.212891ZM68.4291 0.746094L68.1431 0.836662L68.1433 0.837324L68.4291 0.746094ZM69.5776 4.34375L69.2918 4.43498L69.3589 4.64512L69.5794 4.64374L69.5776 4.34375ZM73.3452 4.32031L73.347 4.62032L73.3499 4.62027L73.3452 4.32031ZM73.9428 4.4375L73.8006 4.70169L73.8059 4.70445L73.9428 4.4375ZM74.2534 4.79492L74.538 4.70005L74.5373 4.69798L74.2534 4.79492ZM74.2182 5.27539L74.4852 5.41229L74.4865 5.40955L74.2182 5.27539ZM73.8022 5.71484L73.6292 5.46975L73.6272 5.47116L73.8022 5.71484ZM70.726 7.92383L70.551 7.68015L70.3709 7.80951L70.4417 8.01967L70.726 7.92383ZM71.933 11.5039L71.6488 11.5998L71.6489 11.6002L71.933 11.5039ZM72.0034 12.1016L71.7083 12.0467L71.7071 12.0544L72.0034 12.1016ZM71.7573 12.5117L71.5783 12.2707L71.5699 12.2775L71.7573 12.5117ZM70.7436 12.3711L70.5659 12.6128L70.5683 12.6146L70.7436 12.3711ZM67.6909 10.127L67.8686 9.88524L67.6907 9.75449L67.5129 9.8854L67.6909 10.127ZM64.644 12.3711L64.8193 12.6146L64.8219 12.6126L64.644 12.3711ZM64.6616 11.0938L64.9112 10.9273L64.8947 10.9026L64.8737 10.8816L64.6616 11.0938ZM64.7084 11.0879L64.8748 11.3375L64.8835 11.3317L64.8917 11.3254L64.7084 11.0879ZM67.351 9.04883L67.5343 9.28638L67.5384 9.28309L67.351 9.04883ZM68.0366 9.04883L67.8491 9.28312L67.8533 9.28634L68.0366 9.04883ZM70.6791 11.0879L70.4959 11.3254L70.5041 11.3317L70.5127 11.3375L70.6791 11.0879ZM70.726 11.0938L70.9756 11.2602L70.986 11.2446L70.9943 11.2279L70.726 11.0938ZM70.726 11.0469L71.0219 10.9976L71.0176 10.9715L71.0088 10.9466L70.726 11.0469ZM69.6127 7.90625L69.3281 8.00114L69.33 8.00648L69.6127 7.90625ZM69.56 7.6543H69.26V7.66219L69.2604 7.67006L69.56 7.6543ZM69.6186 7.44336L69.3711 7.27324L69.3642 7.28436L69.6186 7.44336ZM69.812 7.26172L69.981 7.50959L69.9812 7.50945L69.812 7.26172ZM72.5659 5.38086L72.3994 5.13123L72.3967 5.13313L72.5659 5.38086ZM72.5952 5.33398L72.8862 5.26122L72.8834 5.25005L72.8798 5.23912L72.5952 5.33398ZM72.5424 5.31641V5.01632L72.535 5.0165L72.5424 5.31641ZM69.2143 5.39844L69.2069 5.09853L69.2066 5.09854L69.2143 5.39844ZM68.8569 5.32227L68.6878 5.57026L68.6958 5.57536L68.8569 5.32227ZM68.6635 5.00586L68.9523 4.92442L68.9514 4.92135L68.6635 5.00586ZM67.726 1.8125L67.4376 1.89492L67.4382 1.89701L67.726 1.8125ZM67.6616 1.8125L67.9494 1.89701L67.95 1.89492L67.6616 1.8125ZM66.7241 5.00586L66.4362 4.92135L66.4353 4.92442L66.7241 5.00586ZM66.5307 5.32227L66.6918 5.57549L66.6997 5.57013L66.5307 5.32227ZM66.1733 5.39844L66.181 5.09854L66.1807 5.09853L66.1733 5.39844ZM62.8452 5.31641L62.8526 5.01641H62.8452V5.31641ZM62.7924 5.33398L62.5078 5.23912L62.5042 5.25005L62.5014 5.26122L62.7924 5.33398ZM62.8217 5.38086L62.9909 5.13311L62.9881 5.13124L62.8217 5.38086ZM65.5756 7.26172L65.4064 7.50945L65.4066 7.50959L65.5756 7.26172ZM65.7631 7.44336L65.5085 7.60251L65.5159 7.61332L65.7631 7.44336ZM65.8217 7.6543L65.5221 7.63932L65.5217 7.6468V7.6543H65.8217ZM65.7748 7.90625L66.0577 8.0065L66.0595 8.00112L65.7748 7.90625ZM64.6616 11.0469L64.3788 10.9466L64.377 10.952L64.6616 11.0469ZM63.8092 12.2709C63.7353 12.216 63.6915 12.147 63.6735 12.0479L63.0832 12.1552C63.1277 12.3998 63.2519 12.6043 63.4514 12.7525L63.8092 12.2709ZM63.6745 12.0534C63.6577 11.9501 63.6699 11.8029 63.7387 11.6002L63.1704 11.4076C63.0829 11.6658 63.0444 11.917 63.0823 12.1498L63.6745 12.0534ZM63.7388 11.5998L64.9458 8.01967L64.3773 7.82798L63.1703 11.4081L63.7388 11.5998ZM64.8365 7.68015L61.7604 5.47116L61.4104 5.95852L64.4866 8.16751L64.8365 7.68015ZM61.7584 5.46975C61.583 5.34597 61.485 5.23333 61.4363 5.1385L60.9024 5.41229C61.01 5.62214 61.1893 5.80247 61.4124 5.95993L61.7584 5.46975ZM61.4377 5.14123C61.3948 5.05533 61.3896 4.97751 61.4188 4.88979L60.8496 4.70005C60.7695 4.94046 60.7877 5.18295 60.901 5.40955L61.4377 5.14123ZM61.4181 4.89187C61.4474 4.80624 61.4976 4.74756 61.5817 4.70445L61.3079 4.17055C61.0872 4.28369 60.9305 4.46329 60.8503 4.69798L61.4181 4.89187ZM61.587 4.70164C61.6791 4.65203 61.8224 4.61686 62.0377 4.62027L62.0472 4.02035C61.7702 4.01595 61.5151 4.0589 61.3025 4.17336L61.587 4.70164ZM62.0406 4.62031L65.8081 4.64374L65.8119 4.04376L62.0443 4.02032L62.0406 4.62031ZM66.0958 4.43498L67.2442 0.837324L66.6726 0.654864L65.5242 4.25252L66.0958 4.43498ZM67.2444 0.836661C67.31 0.629499 67.388 0.500543 67.4635 0.425023L67.0393 0.000758582C66.8726 0.167426 66.7553 0.393938 66.6724 0.655526L67.2444 0.836661ZM67.4635 0.425023C67.5356 0.353002 67.607 0.325391 67.6909 0.325391V-0.274609C67.4388 -0.274609 67.2173 -0.177221 67.0393 0.000758582L67.4635 0.425023ZM67.6909 0.325391C67.7804 0.325391 67.8495 0.354134 67.9148 0.421629L68.3458 0.00415205C68.169 -0.178352 67.9451 -0.274609 67.6909 -0.274609V0.325391ZM67.9216 0.428363C67.9992 0.503542 68.0781 0.631264 68.1431 0.836661L68.7151 0.655526C68.6317 0.392174 68.5114 0.164426 68.3391 -0.00258145L67.9216 0.428363ZM68.1433 0.837324L69.2918 4.43498L69.8634 4.25252L68.7149 0.654864L68.1433 0.837324ZM69.5794 4.64374L73.347 4.62031L73.3433 4.02032L69.5757 4.04376L69.5794 4.64374ZM73.3499 4.62027C73.5652 4.61686 73.7085 4.65203 73.8006 4.70164L74.085 4.17336C73.8725 4.0589 73.6173 4.01595 73.3404 4.02035L73.3499 4.62027ZM73.8059 4.70445C73.89 4.74756 73.9402 4.80624 73.9695 4.89187L74.5373 4.69798C74.4571 4.46329 74.3003 4.28369 74.0797 4.17055L73.8059 4.70445ZM73.9688 4.88979C73.998 4.97751 73.9928 5.05533 73.9499 5.14123L74.4865 5.40955C74.5998 5.18295 74.6181 4.94046 74.538 4.70005L73.9688 4.88979ZM73.9513 5.1385C73.9026 5.23333 73.8045 5.34597 73.6292 5.46975L73.9752 5.95993C74.1983 5.80247 74.3775 5.62214 74.4851 5.41229L73.9513 5.1385ZM73.6272 5.47116L70.551 7.68015L70.901 8.16751L73.9772 5.95852L73.6272 5.47116ZM70.4417 8.01967L71.6488 11.5998L72.2173 11.4081L71.0103 7.82798L70.4417 8.01967ZM71.6489 11.6002C71.7172 11.8015 71.7271 11.9461 71.7084 12.0467L72.2983 12.1564C72.3421 11.921 72.3052 11.6673 72.2172 11.4076L71.6489 11.6002ZM71.7071 12.0544C71.6918 12.1508 71.6506 12.2172 71.5784 12.2709L71.9362 12.7525C72.1373 12.6031 72.2603 12.3961 72.2996 12.1487L71.7071 12.0544ZM71.5699 12.2775C71.5007 12.3328 71.4343 12.3494 71.348 12.3337L71.2407 12.9241C71.4982 12.9709 71.7404 12.9094 71.9447 12.746L71.5699 12.2775ZM71.348 12.3337C71.2334 12.3129 71.0909 12.2515 70.9189 12.1276L70.5683 12.6146C70.7869 12.772 71.0116 12.8824 71.2407 12.9241L71.348 12.3337ZM70.9213 12.1294L67.8686 9.88524L67.5132 10.3687L70.5659 12.6128L70.9213 12.1294ZM67.5129 9.8854L64.4661 12.1295L64.8219 12.6126L67.8688 10.3685L67.5129 9.8854ZM64.4687 12.1276C64.2967 12.2515 64.1542 12.3129 64.0395 12.3337L64.1469 12.9241C64.3759 12.8824 64.6006 12.772 64.8193 12.6146L64.4687 12.1276ZM64.0395 12.3337C63.9533 12.3494 63.8868 12.3328 63.8177 12.2775L63.4429 12.746C63.6472 12.9094 63.8894 12.9709 64.1469 12.9241L64.0395 12.3337ZM64.4119 11.2602C64.443 11.3068 64.49 11.3504 64.5535 11.3769C64.6149 11.4025 64.673 11.4042 64.7164 11.3988C64.7937 11.3891 64.8504 11.3538 64.8748 11.3375L64.542 10.8383C64.5431 10.8376 64.5802 10.8111 64.6419 10.8034C64.6775 10.7989 64.7287 10.7999 64.7843 10.8231C64.8419 10.8471 64.884 10.8866 64.9112 10.9273L64.4119 11.2602ZM64.8917 11.3254L67.5343 9.28634L67.1677 8.81132L64.5252 10.8504L64.8917 11.3254ZM67.5384 9.28309C67.622 9.2162 67.6711 9.2082 67.6909 9.2082V8.6082C67.4919 8.6082 67.3144 8.69395 67.1636 8.81457L67.5384 9.28309ZM67.6909 9.2082C67.7167 9.2082 67.7678 9.21803 67.8492 9.28309L68.224 8.81457C68.0709 8.69213 67.8916 8.6082 67.6909 8.6082V9.2082ZM67.8533 9.28634L70.4959 11.3254L70.8624 10.8504L68.2198 8.81132L67.8533 9.28634ZM70.5127 11.3375C70.5372 11.3538 70.5939 11.3891 70.6712 11.3988C70.7146 11.4042 70.7727 11.4025 70.8341 11.3769C70.8976 11.3504 70.9446 11.3068 70.9756 11.2602L70.4764 10.9273C70.5036 10.8866 70.5457 10.8471 70.6033 10.8231C70.6589 10.7999 70.7101 10.7989 70.7456 10.8034C70.8074 10.8111 70.8445 10.8376 70.8456 10.8383L70.5127 11.3375ZM70.9943 11.2279C71.0276 11.1613 71.0289 11.0993 71.0289 11.0762C71.0289 11.0457 71.0254 11.0181 71.0219 10.9976L70.4301 11.0962C70.4306 11.0991 70.4289 11.091 70.4289 11.0762C70.4289 11.0684 70.4294 11.0546 70.4323 11.0371C70.4351 11.0204 70.4415 10.992 70.4577 10.9596L70.9943 11.2279ZM71.0088 10.9466L69.8955 7.80602L69.33 8.00648L70.4433 11.1471L71.0088 10.9466ZM69.8973 7.81138C69.872 7.73535 69.8617 7.67865 69.8596 7.63853L69.2604 7.67006C69.2661 7.77838 69.291 7.88965 69.3281 8.00112L69.8973 7.81138ZM69.86 7.6543C69.86 7.62887 69.8655 7.61428 69.873 7.60236L69.3642 7.28436C69.2935 7.39744 69.26 7.52347 69.26 7.6543H69.86ZM69.8658 7.61332C69.8815 7.59046 69.9151 7.55452 69.981 7.50959L69.643 7.01385C69.537 7.08611 69.4416 7.17126 69.3714 7.2734L69.8658 7.61332ZM69.9812 7.50945L72.7351 5.62859L72.3967 5.13313L69.6428 7.01398L69.9812 7.50945ZM72.7323 5.63047C72.7741 5.60261 72.9402 5.47728 72.8862 5.26122L72.3041 5.40675C72.2834 5.32391 72.3049 5.24882 72.3364 5.19842C72.3628 5.15615 72.3927 5.13577 72.3995 5.13124L72.7323 5.63047ZM72.8798 5.23912C72.8353 5.10567 72.7259 5.05351 72.6739 5.0362C72.6206 5.01844 72.5714 5.01641 72.5424 5.01641V5.61641C72.5413 5.61641 72.536 5.61638 72.5276 5.61537C72.5196 5.61442 72.5041 5.61203 72.4842 5.60541C72.4498 5.59395 72.3511 5.55058 72.3106 5.42885L72.8798 5.23912ZM72.535 5.0165L69.2069 5.09853L69.2217 5.69835L72.5498 5.61632L72.535 5.0165ZM69.2066 5.09854C69.0861 5.10163 69.0343 5.07957 69.0179 5.06917L68.6958 5.57536C68.8513 5.67433 69.0378 5.70306 69.222 5.69834L69.2066 5.09854ZM69.0259 5.0744C69.0218 5.07163 68.9857 5.04286 68.9523 4.92442L68.3748 5.0873C68.4273 5.27355 68.5201 5.45572 68.6879 5.57013L69.0259 5.0744ZM68.9514 4.92135L68.0139 1.72799L67.4382 1.89701L68.3757 5.09037L68.9514 4.92135ZM68.0145 1.73008C68.0048 1.69634 67.9847 1.63967 67.9391 1.5865C67.886 1.52444 67.8001 1.47148 67.6909 1.47148V2.07148C67.5973 2.07148 67.5251 2.02536 67.4836 1.97698C67.4497 1.93748 67.4394 1.90132 67.4376 1.89492L68.0145 1.73008ZM67.6909 1.47148C67.5507 1.47148 67.4658 1.5581 67.4306 1.60737C67.3967 1.65487 67.3808 1.703 67.3731 1.73008L67.95 1.89492C67.9494 1.89713 67.9475 1.90357 67.9435 1.91273C67.9398 1.92139 67.9323 1.93735 67.9189 1.95611C67.8934 1.99171 67.8193 2.07148 67.6909 2.07148V1.47148ZM67.3737 1.72799L66.4362 4.92135L67.0119 5.09037L67.9494 1.89701L67.3737 1.72799ZM66.4353 4.92442C66.4019 5.04286 66.3658 5.07163 66.3617 5.0744L66.6997 5.57013C66.8675 5.45572 66.9603 5.27355 67.0128 5.0873L66.4353 4.92442ZM66.3696 5.06917C66.3533 5.07957 66.3015 5.10163 66.181 5.09854L66.1656 5.69834C66.3498 5.70306 66.5362 5.67433 66.6918 5.57536L66.3696 5.06917ZM66.1807 5.09853L62.8525 5.0165L62.8378 5.61632L66.1659 5.69835L66.1807 5.09853ZM62.8452 5.01641C62.8162 5.01641 62.7669 5.01844 62.7137 5.0362C62.6617 5.05351 62.5523 5.10567 62.5078 5.23912L63.077 5.42885C63.0365 5.55058 62.9378 5.59395 62.9034 5.60541C62.8835 5.61203 62.8679 5.61442 62.86 5.61537C62.8516 5.61638 62.8463 5.61641 62.8452 5.61641V5.01641ZM62.5014 5.26122C62.4474 5.47728 62.6135 5.60261 62.6553 5.63047L62.9881 5.13124C62.9949 5.13577 63.0248 5.15615 63.0512 5.19842C63.0827 5.24882 63.1042 5.32391 63.0835 5.40675L62.5014 5.26122ZM62.6525 5.62859L65.4064 7.50945L65.7448 7.01398L62.9909 5.13313L62.6525 5.62859ZM65.4066 7.50959C65.4714 7.55373 65.4988 7.58641 65.5087 7.60236L66.0175 7.28436C65.9494 7.1753 65.8518 7.0869 65.7446 7.01385L65.4066 7.50959ZM65.5159 7.61332C65.5204 7.61979 65.5228 7.6247 65.5221 7.63932L66.1213 7.66928C66.1284 7.52764 66.0918 7.39193 66.0103 7.2734L65.5159 7.61332ZM65.5217 7.6543C65.5217 7.68759 65.5145 7.73872 65.4902 7.81138L66.0595 8.00112C66.0977 7.88628 66.1217 7.76944 66.1217 7.6543H65.5217ZM65.4921 7.80602L64.3788 10.9466L64.9443 11.1471L66.0576 8.00648L65.4921 7.80602ZM64.377 10.952C64.3681 10.9787 64.3557 11.023 64.3557 11.0762C64.3557 11.1302 64.3694 11.2259 64.4494 11.3059L64.8737 10.8816C64.9459 10.9538 64.9557 11.0377 64.9557 11.0762C64.9557 11.1137 64.9473 11.1385 64.9462 11.1417L64.377 10.952Z" fill="#AFAFAF" mask="url(#path-1-outside-1_151_8)"/>
</svg>
