<svg width="75" height="13" viewBox="0 0 75 13" fill="none" xmlns="http://www.w3.org/2000/svg">
<mask id="path-1-outside-1_151_10" maskUnits="userSpaceOnUse" x="-1" y="-1" width="76" height="14" fill="black">
<rect fill="white" x="-1" y="-1" width="76" height="14"/>
<path d="M2.72656 12.5117C2.58984 12.4102 2.50586 12.2734 2.47461 12.1016C2.44727 11.9336 2.47266 11.7344 2.55078 11.5039L3.75781 7.92383L0.681641 5.71484C0.482422 5.57422 0.34375 5.42773 0.265625 5.27539C0.1875 5.11914 0.175781 4.95898 0.230469 4.79492C0.285156 4.63477 0.388672 4.51562 0.541016 4.4375C0.693359 4.35547 0.892578 4.31641 1.13867 4.32031L4.90625 4.34375L6.05469 0.746094C6.12891 0.511719 6.22656 0.333984 6.34766 0.212891C6.47266 0.0878906 6.61914 0.0253906 6.78711 0.0253906C6.95898 0.0253906 7.10547 0.0878906 7.22656 0.212891C7.35156 0.333984 7.45117 0.511719 7.52539 0.746094L8.67383 4.34375L12.4414 4.32031C12.6875 4.31641 12.8867 4.35547 13.0391 4.4375C13.1914 4.51562 13.2949 4.63477 13.3496 4.79492C13.4043 4.95898 13.3926 5.11914 13.3145 5.27539C13.2363 5.42773 13.0977 5.57422 12.8984 5.71484L9.82227 7.92383L11.0293 11.5039C11.1074 11.7344 11.1309 11.9336 11.0996 12.1016C11.0723 12.2734 10.9902 12.4102 10.8535 12.5117C10.7168 12.6211 10.5625 12.6602 10.3906 12.6289C10.2188 12.5977 10.0352 12.5117 9.83984 12.3711L6.78711 10.127L3.74023 12.3711C3.54492 12.5117 3.36133 12.5977 3.18945 12.6289C3.01758 12.6602 2.86328 12.6211 2.72656 12.5117ZM17.9525 12.5117C17.8158 12.4102 17.7318 12.2734 17.7005 12.1016C17.6732 11.9336 17.6986 11.7344 17.7767 11.5039L18.9838 7.92383L15.9076 5.71484C15.7084 5.57422 15.5697 5.42773 15.4916 5.27539C15.4134 5.11914 15.4017 4.95898 15.4564 4.79492C15.5111 4.63477 15.6146 4.51562 15.767 4.4375C15.9193 4.35547 16.1185 4.31641 16.3646 4.32031L20.1322 4.34375L21.2806 0.746094C21.3548 0.511719 21.4525 0.333984 21.5736 0.212891C21.6986 0.0878906 21.8451 0.0253906 22.013 0.0253906C22.1849 0.0253906 22.3314 0.0878906 22.4525 0.212891C22.5775 0.333984 22.6771 0.511719 22.7513 0.746094L23.8998 4.34375L27.6673 4.32031C27.9134 4.31641 28.1127 4.35547 28.265 4.4375C28.4173 4.51562 28.5209 4.63477 28.5755 4.79492C28.6302 4.95898 28.6185 5.11914 28.5404 5.27539C28.4623 5.42773 28.3236 5.57422 28.1244 5.71484L25.0482 7.92383L26.2552 11.5039C26.3334 11.7344 26.3568 11.9336 26.3255 12.1016C26.2982 12.2734 26.2162 12.4102 26.0795 12.5117C25.9427 12.6211 25.7884 12.6602 25.6166 12.6289C25.4447 12.5977 25.2611 12.5117 25.0658 12.3711L22.013 10.127L18.9662 12.3711C18.7709 12.5117 18.5873 12.5977 18.4154 12.6289C18.2435 12.6602 18.0892 12.6211 17.9525 12.5117ZM33.1784 12.5117C33.0417 12.4102 32.9577 12.2734 32.9265 12.1016C32.8991 11.9336 32.9245 11.7344 33.0027 11.5039L34.2097 7.92383L31.1335 5.71484C30.9343 5.57422 30.7956 5.42773 30.7175 5.27539C30.6394 5.11914 30.6277 4.95898 30.6823 4.79492C30.737 4.63477 30.8405 4.51562 30.9929 4.4375C31.1452 4.35547 31.3445 4.31641 31.5905 4.32031L35.3581 4.34375L36.5066 0.746094C36.5808 0.511719 36.6784 0.333984 36.7995 0.212891C36.9245 0.0878906 37.071 0.0253906 37.239 0.0253906C37.4109 0.0253906 37.5573 0.0878906 37.6784 0.212891C37.8034 0.333984 37.903 0.511719 37.9773 0.746094L39.1257 4.34375L42.8933 4.32031C43.1394 4.31641 43.3386 4.35547 43.4909 4.4375C43.6433 4.51562 43.7468 4.63477 43.8015 4.79492C43.8562 4.95898 43.8445 5.11914 43.7663 5.27539C43.6882 5.42773 43.5495 5.57422 43.3503 5.71484L40.2741 7.92383L41.4812 11.5039C41.5593 11.7344 41.5827 11.9336 41.5515 12.1016C41.5241 12.2734 41.4421 12.4102 41.3054 12.5117C41.1687 12.6211 41.0144 12.6602 40.8425 12.6289C40.6706 12.5977 40.487 12.5117 40.2917 12.3711L37.239 10.127L34.1921 12.3711C33.9968 12.5117 33.8132 12.5977 33.6413 12.6289C33.4695 12.6602 33.3152 12.6211 33.1784 12.5117ZM48.4044 12.5117C48.2677 12.4102 48.1837 12.2734 48.1524 12.1016C48.1251 11.9336 48.1505 11.7344 48.2286 11.5039L49.4356 7.92383L46.3595 5.71484C46.1602 5.57422 46.0216 5.42773 45.9434 5.27539C45.8653 5.11914 45.8536 4.95898 45.9083 4.79492C45.963 4.63477 46.0665 4.51562 46.2188 4.4375C46.3712 4.35547 46.5704 4.31641 46.8165 4.32031L50.5841 4.34375L51.7325 0.746094C51.8067 0.511719 51.9044 0.333984 52.0255 0.212891C52.1505 0.0878906 52.297 0.0253906 52.4649 0.0253906C52.6368 0.0253906 52.7833 0.0878906 52.9044 0.212891C53.0294 0.333984 53.129 0.511719 53.2032 0.746094L54.3516 4.34375L58.1192 4.32031C58.3653 4.31641 58.5645 4.35547 58.7169 4.4375C58.8692 4.51562 58.9727 4.63477 59.0274 4.79492C59.0821 4.95898 59.0704 5.11914 58.9923 5.27539C58.9141 5.42773 58.7755 5.57422 58.5762 5.71484L55.5001 7.92383L56.7071 11.5039C56.7852 11.7344 56.8087 11.9336 56.7774 12.1016C56.7501 12.2734 56.668 12.4102 56.5313 12.5117C56.3946 12.6211 56.2403 12.6602 56.0684 12.6289C55.8966 12.5977 55.713 12.5117 55.5177 12.3711L52.4649 10.127L49.418 12.3711C49.2227 12.5117 49.0391 12.5977 48.8673 12.6289C48.6954 12.6602 48.5411 12.6211 48.4044 12.5117ZM63.6303 12.5117C63.4936 12.4102 63.4096 12.2734 63.3784 12.1016C63.351 11.9336 63.3764 11.7344 63.4545 11.5039L64.6616 7.92383L61.5854 5.71484C61.3862 5.57422 61.2475 5.42773 61.1694 5.27539C61.0913 5.11914 61.0795 4.95898 61.1342 4.79492C61.1889 4.63477 61.2924 4.51562 61.4448 4.4375C61.5971 4.35547 61.7963 4.31641 62.0424 4.32031L65.81 4.34375L66.9584 0.746094C67.0327 0.511719 67.1303 0.333984 67.2514 0.212891C67.3764 0.0878906 67.5229 0.0253906 67.6909 0.0253906C67.8627 0.0253906 68.0092 0.0878906 68.1303 0.212891C68.2553 0.333984 68.3549 0.511719 68.4291 0.746094L69.5776 4.34375L73.3452 4.32031C73.5913 4.31641 73.7905 4.35547 73.9428 4.4375C74.0952 4.51562 74.1987 4.63477 74.2534 4.79492C74.308 4.95898 74.2963 5.11914 74.2182 5.27539C74.1401 5.42773 74.0014 5.57422 73.8022 5.71484L70.726 7.92383L71.933 11.5039C72.0112 11.7344 72.0346 11.9336 72.0034 12.1016C71.976 12.2734 71.894 12.4102 71.7573 12.5117C71.6205 12.6211 71.4663 12.6602 71.2944 12.6289C71.1225 12.5977 70.9389 12.5117 70.7436 12.3711L67.6909 10.127L64.644 12.3711C64.4487 12.5117 64.2651 12.5977 64.0932 12.6289C63.9213 12.6602 63.767 12.6211 63.6303 12.5117Z"/>
</mask>
<path d="M2.72656 12.5117C2.58984 12.4102 2.50586 12.2734 2.47461 12.1016C2.44727 11.9336 2.47266 11.7344 2.55078 11.5039L3.75781 7.92383L0.681641 5.71484C0.482422 5.57422 0.34375 5.42773 0.265625 5.27539C0.1875 5.11914 0.175781 4.95898 0.230469 4.79492C0.285156 4.63477 0.388672 4.51562 0.541016 4.4375C0.693359 4.35547 0.892578 4.31641 1.13867 4.32031L4.90625 4.34375L6.05469 0.746094C6.12891 0.511719 6.22656 0.333984 6.34766 0.212891C6.47266 0.0878906 6.61914 0.0253906 6.78711 0.0253906C6.95898 0.0253906 7.10547 0.0878906 7.22656 0.212891C7.35156 0.333984 7.45117 0.511719 7.52539 0.746094L8.67383 4.34375L12.4414 4.32031C12.6875 4.31641 12.8867 4.35547 13.0391 4.4375C13.1914 4.51562 13.2949 4.63477 13.3496 4.79492C13.4043 4.95898 13.3926 5.11914 13.3145 5.27539C13.2363 5.42773 13.0977 5.57422 12.8984 5.71484L9.82227 7.92383L11.0293 11.5039C11.1074 11.7344 11.1309 11.9336 11.0996 12.1016C11.0723 12.2734 10.9902 12.4102 10.8535 12.5117C10.7168 12.6211 10.5625 12.6602 10.3906 12.6289C10.2188 12.5977 10.0352 12.5117 9.83984 12.3711L6.78711 10.127L3.74023 12.3711C3.54492 12.5117 3.36133 12.5977 3.18945 12.6289C3.01758 12.6602 2.86328 12.6211 2.72656 12.5117ZM17.9525 12.5117C17.8158 12.4102 17.7318 12.2734 17.7005 12.1016C17.6732 11.9336 17.6986 11.7344 17.7767 11.5039L18.9838 7.92383L15.9076 5.71484C15.7084 5.57422 15.5697 5.42773 15.4916 5.27539C15.4134 5.11914 15.4017 4.95898 15.4564 4.79492C15.5111 4.63477 15.6146 4.51562 15.767 4.4375C15.9193 4.35547 16.1185 4.31641 16.3646 4.32031L20.1322 4.34375L21.2806 0.746094C21.3548 0.511719 21.4525 0.333984 21.5736 0.212891C21.6986 0.0878906 21.8451 0.0253906 22.013 0.0253906C22.1849 0.0253906 22.3314 0.0878906 22.4525 0.212891C22.5775 0.333984 22.6771 0.511719 22.7513 0.746094L23.8998 4.34375L27.6673 4.32031C27.9134 4.31641 28.1127 4.35547 28.265 4.4375C28.4173 4.51562 28.5209 4.63477 28.5755 4.79492C28.6302 4.95898 28.6185 5.11914 28.5404 5.27539C28.4623 5.42773 28.3236 5.57422 28.1244 5.71484L25.0482 7.92383L26.2552 11.5039C26.3334 11.7344 26.3568 11.9336 26.3255 12.1016C26.2982 12.2734 26.2162 12.4102 26.0795 12.5117C25.9427 12.6211 25.7884 12.6602 25.6166 12.6289C25.4447 12.5977 25.2611 12.5117 25.0658 12.3711L22.013 10.127L18.9662 12.3711C18.7709 12.5117 18.5873 12.5977 18.4154 12.6289C18.2435 12.6602 18.0892 12.6211 17.9525 12.5117ZM33.1784 12.5117C33.0417 12.4102 32.9577 12.2734 32.9265 12.1016C32.8991 11.9336 32.9245 11.7344 33.0027 11.5039L34.2097 7.92383L31.1335 5.71484C30.9343 5.57422 30.7956 5.42773 30.7175 5.27539C30.6394 5.11914 30.6277 4.95898 30.6823 4.79492C30.737 4.63477 30.8405 4.51562 30.9929 4.4375C31.1452 4.35547 31.3445 4.31641 31.5905 4.32031L35.3581 4.34375L36.5066 0.746094C36.5808 0.511719 36.6784 0.333984 36.7995 0.212891C36.9245 0.0878906 37.071 0.0253906 37.239 0.0253906C37.4109 0.0253906 37.5573 0.0878906 37.6784 0.212891C37.8034 0.333984 37.903 0.511719 37.9773 0.746094L39.1257 4.34375L42.8933 4.32031C43.1394 4.31641 43.3386 4.35547 43.4909 4.4375C43.6433 4.51562 43.7468 4.63477 43.8015 4.79492C43.8562 4.95898 43.8445 5.11914 43.7663 5.27539C43.6882 5.42773 43.5495 5.57422 43.3503 5.71484L40.2741 7.92383L41.4812 11.5039C41.5593 11.7344 41.5827 11.9336 41.5515 12.1016C41.5241 12.2734 41.4421 12.4102 41.3054 12.5117C41.1687 12.6211 41.0144 12.6602 40.8425 12.6289C40.6706 12.5977 40.487 12.5117 40.2917 12.3711L37.239 10.127L34.1921 12.3711C33.9968 12.5117 33.8132 12.5977 33.6413 12.6289C33.4695 12.6602 33.3152 12.6211 33.1784 12.5117ZM48.4044 12.5117C48.2677 12.4102 48.1837 12.2734 48.1524 12.1016C48.1251 11.9336 48.1505 11.7344 48.2286 11.5039L49.4356 7.92383L46.3595 5.71484C46.1602 5.57422 46.0216 5.42773 45.9434 5.27539C45.8653 5.11914 45.8536 4.95898 45.9083 4.79492C45.963 4.63477 46.0665 4.51562 46.2188 4.4375C46.3712 4.35547 46.5704 4.31641 46.8165 4.32031L50.5841 4.34375L51.7325 0.746094C51.8067 0.511719 51.9044 0.333984 52.0255 0.212891C52.1505 0.0878906 52.297 0.0253906 52.4649 0.0253906C52.6368 0.0253906 52.7833 0.0878906 52.9044 0.212891C53.0294 0.333984 53.129 0.511719 53.2032 0.746094L54.3516 4.34375L58.1192 4.32031C58.3653 4.31641 58.5645 4.35547 58.7169 4.4375C58.8692 4.51562 58.9727 4.63477 59.0274 4.79492C59.0821 4.95898 59.0704 5.11914 58.9923 5.27539C58.9141 5.42773 58.7755 5.57422 58.5762 5.71484L55.5001 7.92383L56.7071 11.5039C56.7852 11.7344 56.8087 11.9336 56.7774 12.1016C56.7501 12.2734 56.668 12.4102 56.5313 12.5117C56.3946 12.6211 56.2403 12.6602 56.0684 12.6289C55.8966 12.5977 55.713 12.5117 55.5177 12.3711L52.4649 10.127L49.418 12.3711C49.2227 12.5117 49.0391 12.5977 48.8673 12.6289C48.6954 12.6602 48.5411 12.6211 48.4044 12.5117ZM63.6303 12.5117C63.4936 12.4102 63.4096 12.2734 63.3784 12.1016C63.351 11.9336 63.3764 11.7344 63.4545 11.5039L64.6616 7.92383L61.5854 5.71484C61.3862 5.57422 61.2475 5.42773 61.1694 5.27539C61.0913 5.11914 61.0795 4.95898 61.1342 4.79492C61.1889 4.63477 61.2924 4.51562 61.4448 4.4375C61.5971 4.35547 61.7963 4.31641 62.0424 4.32031L65.81 4.34375L66.9584 0.746094C67.0327 0.511719 67.1303 0.333984 67.2514 0.212891C67.3764 0.0878906 67.5229 0.0253906 67.6909 0.0253906C67.8627 0.0253906 68.0092 0.0878906 68.1303 0.212891C68.2553 0.333984 68.3549 0.511719 68.4291 0.746094L69.5776 4.34375L73.3452 4.32031C73.5913 4.31641 73.7905 4.35547 73.9428 4.4375C74.0952 4.51562 74.1987 4.63477 74.2534 4.79492C74.308 4.95898 74.2963 5.11914 74.2182 5.27539C74.1401 5.42773 74.0014 5.57422 73.8022 5.71484L70.726 7.92383L71.933 11.5039C72.0112 11.7344 72.0346 11.9336 72.0034 12.1016C71.976 12.2734 71.894 12.4102 71.7573 12.5117C71.6205 12.6211 71.4663 12.6602 71.2944 12.6289C71.1225 12.5977 70.9389 12.5117 70.7436 12.3711L67.6909 10.127L64.644 12.3711C64.4487 12.5117 64.2651 12.5977 64.0932 12.6289C63.9213 12.6602 63.767 12.6211 63.6303 12.5117Z" fill="#FFAF37"/>
<path d="M2.72656 12.5117L2.91409 12.2773L2.90546 12.2709L2.72656 12.5117ZM2.47461 12.1016L2.17846 12.1498L2.17945 12.1552L2.47461 12.1016ZM2.55078 11.5039L2.8349 11.6002L2.83506 11.5998L2.55078 11.5039ZM3.75781 7.92383L4.04209 8.01967L4.11295 7.80951L3.9328 7.68015L3.75781 7.92383ZM0.681641 5.71484L0.856632 5.47116L0.854646 5.46975L0.681641 5.71484ZM0.265625 5.27539L-0.00271714 5.40956L-0.00132025 5.41229L0.265625 5.27539ZM0.230469 4.79492L-0.0534438 4.69798L-0.0541363 4.70005L0.230469 4.79492ZM0.541016 4.4375L0.677938 4.7045L0.683246 4.70164L0.541016 4.4375ZM1.13867 4.32031L1.13391 4.62029L1.13681 4.62031L1.13867 4.32031ZM4.90625 4.34375L4.90438 4.64374L5.12496 4.64512L5.19204 4.43498L4.90625 4.34375ZM6.05469 0.746094L6.34048 0.837324L6.34069 0.836661L6.05469 0.746094ZM7.22656 0.212891L7.01098 0.421734L7.01782 0.428363L7.22656 0.212891ZM7.52539 0.746094L7.23939 0.836662L7.2396 0.837324L7.52539 0.746094ZM8.67383 4.34375L8.38804 4.43498L8.45512 4.64512L8.67569 4.64374L8.67383 4.34375ZM12.4414 4.32031L12.4433 4.62032L12.4462 4.62027L12.4414 4.32031ZM13.0391 4.4375L12.8968 4.70169L12.9022 4.70445L13.0391 4.4375ZM13.3496 4.79492L13.6342 4.70005L13.6335 4.69798L13.3496 4.79492ZM13.3145 5.27539L13.5814 5.41229L13.5828 5.40955L13.3145 5.27539ZM12.8984 5.71484L12.7254 5.46975L12.7235 5.47116L12.8984 5.71484ZM9.82227 7.92383L9.64728 7.68015L9.46713 7.80951L9.53799 8.01967L9.82227 7.92383ZM11.0293 11.5039L10.745 11.5998L10.7452 11.6002L11.0293 11.5039ZM11.0996 12.1016L10.8046 12.0467L10.8033 12.0544L11.0996 12.1016ZM10.8535 12.5117L10.6745 12.2707L10.6661 12.2775L10.8535 12.5117ZM9.83984 12.3711L9.66214 12.6128L9.66455 12.6146L9.83984 12.3711ZM6.78711 10.127L6.9648 9.88524L6.78694 9.75449L6.6092 9.8854L6.78711 10.127ZM3.74023 12.3711L3.91554 12.6146L3.91815 12.6126L3.74023 12.3711ZM2.90546 12.2709C2.83155 12.216 2.78779 12.147 2.76977 12.0479L2.17945 12.1552C2.22392 12.3998 2.34814 12.6043 2.54767 12.7525L2.90546 12.2709ZM2.77071 12.0534C2.75391 11.9501 2.76619 11.8029 2.8349 11.6002L2.26666 11.4076C2.17913 11.6658 2.14062 11.917 2.17851 12.1498L2.77071 12.0534ZM2.83506 11.5998L4.04209 8.01967L3.47353 7.82798L2.2665 11.4081L2.83506 11.5998ZM3.9328 7.68015L0.856626 5.47116L0.506655 5.95852L3.58283 8.16751L3.9328 7.68015ZM0.854646 5.46975C0.679283 5.34597 0.581205 5.23333 0.53257 5.1385L-0.00132025 5.41229C0.106295 5.62214 0.285561 5.80247 0.508636 5.95993L0.854646 5.46975ZM0.533953 5.14123C0.491005 5.05533 0.485833 4.97751 0.515074 4.88979L-0.0541363 4.70005C-0.13427 4.94046 -0.116005 5.18295 -0.00270317 5.40955L0.533953 5.14123ZM0.514374 4.89187C0.543612 4.80624 0.593847 4.74756 0.677911 4.70445L0.404121 4.17055C0.183497 4.28369 0.0267 4.46329 -0.0534362 4.69798L0.514374 4.89187ZM0.683246 4.70164C0.775375 4.65203 0.918671 4.61686 1.13391 4.62027L1.14343 4.02035C0.866485 4.01595 0.611344 4.0589 0.398786 4.17336L0.683246 4.70164ZM1.13681 4.62031L4.90438 4.64374L4.90812 4.04376L1.14054 4.02032L1.13681 4.62031ZM5.19204 4.43498L6.34048 0.837324L5.7689 0.654864L4.62046 4.25252L5.19204 4.43498ZM6.34069 0.836661C6.40629 0.629499 6.48427 0.500543 6.55979 0.425023L6.13552 0.000758582C5.96886 0.167426 5.85152 0.393938 5.76868 0.655526L6.34069 0.836661ZM6.55979 0.425023C6.63181 0.353002 6.70323 0.325391 6.78711 0.325391V-0.274609C6.53505 -0.274609 6.3135 -0.177221 6.13552 0.000758582L6.55979 0.425023ZM6.78711 0.325391C6.87662 0.325391 6.9457 0.354134 7.01109 0.421629L7.44203 0.00415205C7.26523 -0.178352 7.04135 -0.274609 6.78711 -0.274609V0.325391ZM7.01782 0.428363C7.09543 0.503542 7.17435 0.631264 7.23939 0.836661L7.81139 0.655526C7.728 0.392174 7.6077 0.164426 7.4353 -0.00258145L7.01782 0.428363ZM7.2396 0.837324L8.38804 4.43498L8.95962 4.25252L7.81118 0.654864L7.2396 0.837324ZM8.67569 4.64374L12.4433 4.62031L12.4395 4.02032L8.67196 4.04376L8.67569 4.64374ZM12.4462 4.62027C12.6614 4.61686 12.8047 4.65203 12.8968 4.70164L13.1813 4.17336C12.9687 4.0589 12.7136 4.01595 12.4366 4.02035L12.4462 4.62027ZM12.9022 4.70445C12.9862 4.74756 13.0365 4.80624 13.0657 4.89187L13.6335 4.69798C13.5534 4.46329 13.3966 4.28369 13.176 4.17055L12.9022 4.70445ZM13.065 4.88979C13.0942 4.97751 13.0891 5.05533 13.0461 5.14123L13.5828 5.40955C13.6961 5.18295 13.7143 4.94046 13.6342 4.70005L13.065 4.88979ZM13.0475 5.1385C12.9989 5.23333 12.9008 5.34597 12.7254 5.46975L13.0714 5.95993C13.2945 5.80247 13.4738 5.62214 13.5814 5.41229L13.0475 5.1385ZM12.7235 5.47116L9.64728 7.68015L9.99725 8.16751L13.0734 5.95852L12.7235 5.47116ZM9.53799 8.01967L10.745 11.5998L11.3136 11.4081L10.1065 7.82798L9.53799 8.01967ZM10.7452 11.6002C10.8134 11.8015 10.8234 11.9461 10.8047 12.0467L11.3945 12.1564C11.4383 11.921 11.4014 11.6673 11.3134 11.4076L10.7452 11.6002ZM10.8033 12.0544C10.788 12.1508 10.7469 12.2172 10.6746 12.2709L11.0324 12.7525C11.2336 12.6031 11.3565 12.3961 11.3959 12.1487L10.8033 12.0544ZM10.6661 12.2775C10.597 12.3328 10.5306 12.3494 10.4443 12.3337L10.337 12.9241C10.5944 12.9709 10.8366 12.9094 11.0409 12.746L10.6661 12.2775ZM10.4443 12.3337C10.3296 12.3129 10.1871 12.2515 10.0151 12.1276L9.66455 12.6146C9.88318 12.772 10.1079 12.8824 10.337 12.9241L10.4443 12.3337ZM10.0175 12.1294L6.9648 9.88524L6.60942 10.3687L9.66215 12.6128L10.0175 12.1294ZM6.6092 9.8854L3.56232 12.1295L3.91815 12.6126L6.96502 10.3685L6.6092 9.8854ZM3.56494 12.1276C3.39295 12.2515 3.25047 12.3129 3.13579 12.3337L3.24312 12.9241C3.47219 12.8824 3.69689 12.772 3.91553 12.6146L3.56494 12.1276ZM3.13579 12.3337C3.04952 12.3494 2.9831 12.3328 2.91397 12.2775L2.53915 12.746C2.74346 12.9094 2.98564 12.9709 3.24312 12.9241L3.13579 12.3337ZM17.9525 12.5117L18.14 12.2773L18.1314 12.2709L17.9525 12.5117ZM17.7005 12.1016L17.4044 12.1498L17.4054 12.1552L17.7005 12.1016ZM17.7767 11.5039L18.0608 11.6002L18.061 11.5998L17.7767 11.5039ZM18.9838 7.92383L19.268 8.01967L19.3389 7.80951L19.1587 7.68015L18.9838 7.92383ZM15.9076 5.71484L16.0826 5.47116L16.0806 5.46975L15.9076 5.71484ZM15.4916 5.27539L15.2232 5.40956L15.2246 5.41229L15.4916 5.27539ZM15.4564 4.79492L15.1725 4.69798L15.1718 4.70005L15.4564 4.79492ZM15.767 4.4375L15.9039 4.7045L15.9092 4.70164L15.767 4.4375ZM16.3646 4.32031L16.3598 4.62029L16.3627 4.62031L16.3646 4.32031ZM20.1322 4.34375L20.1303 4.64374L20.3509 4.64512L20.418 4.43498L20.1322 4.34375ZM21.2806 0.746094L21.5664 0.837324L21.5666 0.836661L21.2806 0.746094ZM22.4525 0.212891L22.2369 0.421734L22.2438 0.428363L22.4525 0.212891ZM22.7513 0.746094L22.4653 0.836662L22.4655 0.837324L22.7513 0.746094ZM23.8998 4.34375L23.614 4.43498L23.6811 4.64512L23.9016 4.64374L23.8998 4.34375ZM27.6673 4.32031L27.6692 4.62032L27.6721 4.62027L27.6673 4.32031ZM28.265 4.4375L28.1227 4.70169L28.1281 4.70445L28.265 4.4375ZM28.5755 4.79492L28.8602 4.70005L28.8595 4.69798L28.5755 4.79492ZM28.5404 5.27539L28.8074 5.41229L28.8087 5.40955L28.5404 5.27539ZM28.1244 5.71484L27.9514 5.46975L27.9494 5.47116L28.1244 5.71484ZM25.0482 7.92383L24.8732 7.68015L24.6931 7.80951L24.7639 8.01967L25.0482 7.92383ZM26.2552 11.5039L25.971 11.5998L25.9711 11.6002L26.2552 11.5039ZM26.3255 12.1016L26.0305 12.0467L26.0293 12.0544L26.3255 12.1016ZM26.0795 12.5117L25.9004 12.2707L25.892 12.2775L26.0795 12.5117ZM25.0658 12.3711L24.8881 12.6128L24.8905 12.6146L25.0658 12.3711ZM22.013 10.127L22.1907 9.88524L22.0129 9.75449L21.8351 9.8854L22.013 10.127ZM18.9662 12.3711L19.1415 12.6146L19.1441 12.6126L18.9662 12.3711ZM18.1314 12.2709C18.0575 12.216 18.0137 12.147 17.9957 12.0479L17.4054 12.1552C17.4499 12.3998 17.5741 12.6043 17.7736 12.7525L18.1314 12.2709ZM17.9966 12.0534C17.9798 11.9501 17.9921 11.8029 18.0608 11.6002L17.4926 11.4076C17.4051 11.6658 17.3666 11.917 17.4044 12.1498L17.9966 12.0534ZM18.061 11.5998L19.268 8.01967L18.6995 7.82798L17.4924 11.4081L18.061 11.5998ZM19.1587 7.68015L16.0826 5.47116L15.7326 5.95852L18.8088 8.16751L19.1587 7.68015ZM16.0806 5.46975C15.9052 5.34597 15.8071 5.23333 15.7585 5.1385L15.2246 5.41229C15.3322 5.62214 15.5115 5.80247 15.7346 5.95993L16.0806 5.46975ZM15.7599 5.14123C15.7169 5.05533 15.7118 4.97751 15.741 4.88979L15.1718 4.70005C15.0917 4.94046 15.1099 5.18295 15.2232 5.40955L15.7599 5.14123ZM15.7403 4.89187C15.7696 4.80624 15.8198 4.74756 15.9038 4.70445L15.6301 4.17055C15.4094 4.28369 15.2526 4.46329 15.1725 4.69798L15.7403 4.89187ZM15.9092 4.70164C16.0013 4.65203 16.1446 4.61686 16.3598 4.62027L16.3694 4.02035C16.0924 4.01595 15.8373 4.0589 15.6247 4.17336L15.9092 4.70164ZM16.3627 4.62031L20.1303 4.64374L20.1341 4.04376L16.3665 4.02032L16.3627 4.62031ZM20.418 4.43498L21.5664 0.837324L20.9948 0.654864L19.8464 4.25252L20.418 4.43498ZM21.5666 0.836661C21.6322 0.629499 21.7102 0.500543 21.7857 0.425023L21.3615 0.000758582C21.1948 0.167426 21.0775 0.393938 20.9946 0.655526L21.5666 0.836661ZM21.7857 0.425023C21.8577 0.353002 21.9292 0.325391 22.013 0.325391V-0.274609C21.761 -0.274609 21.5394 -0.177221 21.3615 0.000758582L21.7857 0.425023ZM22.013 0.325391C22.1026 0.325391 22.1716 0.354134 22.237 0.421629L22.668 0.00415205C22.4912 -0.178352 22.2673 -0.274609 22.013 -0.274609V0.325391ZM22.2438 0.428363C22.3214 0.503542 22.4003 0.631264 22.4653 0.836661L23.0373 0.655526C22.9539 0.392174 22.8336 0.164426 22.6612 -0.00258145L22.2438 0.428363ZM22.4655 0.837324L23.614 4.43498L24.1856 4.25252L23.0371 0.654864L22.4655 0.837324ZM23.9016 4.64374L27.6692 4.62031L27.6655 4.02032L23.8979 4.04376L23.9016 4.64374ZM27.6721 4.62027C27.8873 4.61686 28.0306 4.65203 28.1228 4.70164L28.4072 4.17336C28.1947 4.0589 27.9395 4.01595 27.6626 4.02035L27.6721 4.62027ZM28.1281 4.70445C28.2122 4.74756 28.2624 4.80624 28.2916 4.89187L28.8595 4.69798C28.7793 4.46329 28.6225 4.28369 28.4019 4.17055L28.1281 4.70445ZM28.2909 4.88979C28.3202 4.97751 28.315 5.05533 28.2721 5.14123L28.8087 5.40955C28.922 5.18295 28.9403 4.94046 28.8602 4.70005L28.2909 4.88979ZM28.2734 5.1385C28.2248 5.23333 28.1267 5.34597 27.9514 5.46975L28.2974 5.95993C28.5205 5.80247 28.6997 5.62214 28.8073 5.41229L28.2734 5.1385ZM27.9494 5.47116L24.8732 7.68015L25.2232 8.16751L28.2994 5.95852L27.9494 5.47116ZM24.7639 8.01967L25.971 11.5998L26.5395 11.4081L25.3325 7.82798L24.7639 8.01967ZM25.9711 11.6002C26.0393 11.8015 26.0493 11.9461 26.0306 12.0467L26.6205 12.1564C26.6643 11.921 26.6274 11.6673 26.5394 11.4076L25.9711 11.6002ZM26.0293 12.0544C26.0139 12.1508 25.9728 12.2172 25.9006 12.2709L26.2584 12.7525C26.4595 12.6031 26.5825 12.3961 26.6218 12.1487L26.0293 12.0544ZM25.892 12.2775C25.8229 12.3328 25.7565 12.3494 25.6702 12.3337L25.5629 12.9241C25.8204 12.9709 26.0626 12.9094 26.2669 12.746L25.892 12.2775ZM25.6702 12.3337C25.5555 12.3129 25.4131 12.2515 25.2411 12.1276L24.8905 12.6146C25.1091 12.772 25.3338 12.8824 25.5629 12.9241L25.6702 12.3337ZM25.2435 12.1294L22.1907 9.88524L21.8354 10.3687L24.8881 12.6128L25.2435 12.1294ZM21.8351 9.8854L18.7883 12.1295L19.1441 12.6126L22.191 10.3685L21.8351 9.8854ZM18.7909 12.1276C18.6189 12.2515 18.4764 12.3129 18.3617 12.3337L18.4691 12.9241C18.6981 12.8824 18.9228 12.772 19.1415 12.6146L18.7909 12.1276ZM18.3617 12.3337C18.2755 12.3494 18.209 12.3328 18.1399 12.2775L17.7651 12.746C17.9694 12.9094 18.2116 12.9709 18.4691 12.9241L18.3617 12.3337ZM33.1784 12.5117L33.366 12.2773L33.3573 12.2709L33.1784 12.5117ZM32.9265 12.1016L32.6303 12.1498L32.6313 12.1552L32.9265 12.1016ZM33.0027 11.5039L33.2868 11.6002L33.2869 11.5998L33.0027 11.5039ZM34.2097 7.92383L34.494 8.01967L34.5648 7.80951L34.3847 7.68015L34.2097 7.92383ZM31.1335 5.71484L31.3085 5.47116L31.3065 5.46975L31.1335 5.71484ZM30.7175 5.27539L30.4492 5.40956L30.4506 5.41229L30.7175 5.27539ZM30.6823 4.79492L30.3984 4.69798L30.3977 4.70005L30.6823 4.79492ZM30.9929 4.4375L31.1298 4.7045L31.1351 4.70164L30.9929 4.4375ZM31.5905 4.32031L31.5858 4.62029L31.5887 4.62031L31.5905 4.32031ZM35.3581 4.34375L35.3563 4.64374L35.5768 4.64512L35.6439 4.43498L35.3581 4.34375ZM36.5066 0.746094L36.7924 0.837324L36.7926 0.836661L36.5066 0.746094ZM37.6784 0.212891L37.4629 0.421734L37.4697 0.428363L37.6784 0.212891ZM37.9773 0.746094L37.6913 0.836662L37.6915 0.837324L37.9773 0.746094ZM39.1257 4.34375L38.8399 4.43498L38.907 4.64512L39.1276 4.64374L39.1257 4.34375ZM42.8933 4.32031L42.8951 4.62032L42.898 4.62027L42.8933 4.32031ZM43.4909 4.4375L43.3487 4.70169L43.354 4.70445L43.4909 4.4375ZM43.8015 4.79492L44.0861 4.70005L44.0854 4.69798L43.8015 4.79492ZM43.7663 5.27539L44.0333 5.41229L44.0347 5.40955L43.7663 5.27539ZM43.3503 5.71484L43.1773 5.46975L43.1753 5.47116L43.3503 5.71484ZM40.2741 7.92383L40.0992 7.68015L39.919 7.80951L39.9899 8.01967L40.2741 7.92383ZM41.4812 11.5039L41.1969 11.5998L41.1971 11.6002L41.4812 11.5039ZM41.5515 12.1016L41.2564 12.0467L41.2552 12.0544L41.5515 12.1016ZM41.3054 12.5117L41.1264 12.2707L41.118 12.2775L41.3054 12.5117ZM40.2917 12.3711L40.114 12.6128L40.1164 12.6146L40.2917 12.3711ZM37.239 10.127L37.4167 9.88524L37.2388 9.75449L37.0611 9.8854L37.239 10.127ZM34.1921 12.3711L34.3674 12.6146L34.37 12.6126L34.1921 12.3711ZM33.3573 12.2709C33.2834 12.216 33.2397 12.147 33.2216 12.0479L32.6313 12.1552C32.6758 12.3998 32.8 12.6043 32.9995 12.7525L33.3573 12.2709ZM33.2226 12.0534C33.2058 11.9501 33.2181 11.8029 33.2868 11.6002L32.7185 11.4076C32.631 11.6658 32.5925 11.917 32.6304 12.1498L33.2226 12.0534ZM33.2869 11.5998L34.494 8.01967L33.9254 7.82798L32.7184 11.4081L33.2869 11.5998ZM34.3847 7.68015L31.3085 5.47116L30.9585 5.95852L34.0347 8.16751L34.3847 7.68015ZM31.3065 5.46975C31.1312 5.34597 31.0331 5.23333 30.9844 5.1385L30.4506 5.41229C30.5582 5.62214 30.7374 5.80247 30.9605 5.95993L31.3065 5.46975ZM30.9858 5.14123C30.9429 5.05533 30.9377 4.97751 30.9669 4.88979L30.3977 4.70005C30.3176 4.94046 30.3359 5.18295 30.4492 5.40955L30.9858 5.14123ZM30.9662 4.89187C30.9955 4.80624 31.0457 4.74756 31.1298 4.70445L30.856 4.17055C30.6354 4.28369 30.4786 4.46329 30.3984 4.69798L30.9662 4.89187ZM31.1351 4.70164C31.2273 4.65203 31.3705 4.61686 31.5858 4.62027L31.5953 4.02035C31.3184 4.01595 31.0632 4.0589 30.8507 4.17336L31.1351 4.70164ZM31.5887 4.62031L35.3563 4.64374L35.36 4.04376L31.5924 4.02032L31.5887 4.62031ZM35.6439 4.43498L36.7924 0.837324L36.2208 0.654864L35.0723 4.25252L35.6439 4.43498ZM36.7926 0.836661C36.8582 0.629499 36.9361 0.500543 37.0117 0.425023L36.5874 0.000758582C36.4207 0.167426 36.3034 0.393938 36.2206 0.655526L36.7926 0.836661ZM37.0117 0.425023C37.0837 0.353002 37.1551 0.325391 37.239 0.325391V-0.274609C36.9869 -0.274609 36.7654 -0.177221 36.5874 0.000758582L37.0117 0.425023ZM37.239 0.325391C37.3285 0.325391 37.3976 0.354134 37.463 0.421629L37.8939 0.00415205C37.7171 -0.178352 37.4932 -0.274609 37.239 -0.274609V0.325391ZM37.4697 0.428363C37.5473 0.503542 37.6262 0.631264 37.6913 0.836661L38.2633 0.655526C38.1799 0.392174 38.0596 0.164426 37.8872 -0.00258145L37.4697 0.428363ZM37.6915 0.837324L38.8399 4.43498L39.4115 4.25252L38.2631 0.654864L37.6915 0.837324ZM39.1276 4.64374L42.8951 4.62031L42.8914 4.02032L39.1238 4.04376L39.1276 4.64374ZM42.898 4.62027C43.1133 4.61686 43.2566 4.65203 43.3487 4.70164L43.6332 4.17336C43.4206 4.0589 43.1655 4.01595 42.8885 4.02035L42.898 4.62027ZM43.354 4.70445C43.4381 4.74756 43.4883 4.80624 43.5176 4.89187L44.0854 4.69798C44.0053 4.46329 43.8485 4.28369 43.6278 4.17055L43.354 4.70445ZM43.5169 4.88979C43.5461 4.97751 43.5409 5.05533 43.498 5.14123L44.0347 5.40955C44.148 5.18295 44.1662 4.94046 44.0861 4.70005L43.5169 4.88979ZM43.4994 5.1385C43.4507 5.23333 43.3527 5.34597 43.1773 5.46975L43.5233 5.95993C43.7464 5.80247 43.9257 5.62214 44.0333 5.41229L43.4994 5.1385ZM43.1753 5.47116L40.0992 7.68015L40.4491 8.16751L43.5253 5.95852L43.1753 5.47116ZM39.9899 8.01967L41.1969 11.5998L41.7655 11.4081L40.5584 7.82798L39.9899 8.01967ZM41.1971 11.6002C41.2653 11.8015 41.2753 11.9461 41.2565 12.0467L41.8464 12.1564C41.8902 11.921 41.8533 11.6673 41.7653 11.4076L41.1971 11.6002ZM41.2552 12.0544C41.2399 12.1508 41.1988 12.2172 41.1265 12.2709L41.4843 12.7525C41.6855 12.6031 41.8084 12.3961 41.8478 12.1487L41.2552 12.0544ZM41.118 12.2775C41.0489 12.3328 40.9824 12.3494 40.8962 12.3337L40.7888 12.9241C41.0463 12.9709 41.2885 12.9094 41.4928 12.746L41.118 12.2775ZM40.8962 12.3337C40.7815 12.3129 40.639 12.2515 40.467 12.1276L40.1164 12.6146C40.3351 12.772 40.5598 12.8824 40.7888 12.9241L40.8962 12.3337ZM40.4694 12.1294L37.4167 9.88524L37.0613 10.3687L40.114 12.6128L40.4694 12.1294ZM37.0611 9.8854L34.0142 12.1295L34.37 12.6126L37.4169 10.3685L37.0611 9.8854ZM34.0168 12.1276C33.8448 12.2515 33.7023 12.3129 33.5877 12.3337L33.695 12.9241C33.9241 12.8824 34.1488 12.772 34.3674 12.6146L34.0168 12.1276ZM33.5877 12.3337C33.5014 12.3494 33.435 12.3328 33.3658 12.2775L32.991 12.746C33.1953 12.9094 33.4375 12.9709 33.695 12.9241L33.5877 12.3337ZM48.4044 12.5117L48.5919 12.2773L48.5833 12.2709L48.4044 12.5117ZM48.1524 12.1016L47.8563 12.1498L47.8573 12.1552L48.1524 12.1016ZM48.2286 11.5039L48.5127 11.6002L48.5129 11.5998L48.2286 11.5039ZM49.4356 7.92383L49.7199 8.01967L49.7908 7.80951L49.6106 7.68015L49.4356 7.92383ZM46.3595 5.71484L46.5344 5.47116L46.5325 5.46975L46.3595 5.71484ZM45.9434 5.27539L45.6751 5.40956L45.6765 5.41229L45.9434 5.27539ZM45.9083 4.79492L45.6244 4.69798L45.6237 4.70005L45.9083 4.79492ZM46.2188 4.4375L46.3557 4.7045L46.3611 4.70164L46.2188 4.4375ZM46.8165 4.32031L46.8117 4.62029L46.8146 4.62031L46.8165 4.32031ZM50.5841 4.34375L50.5822 4.64374L50.8028 4.64512L50.8699 4.43498L50.5841 4.34375ZM51.7325 0.746094L52.0183 0.837324L52.0185 0.836661L51.7325 0.746094ZM52.9044 0.212891L52.6888 0.421734L52.6956 0.428363L52.9044 0.212891ZM53.2032 0.746094L52.9172 0.836662L52.9174 0.837324L53.2032 0.746094ZM54.3516 4.34375L54.0658 4.43498L54.1329 4.64512L54.3535 4.64374L54.3516 4.34375ZM58.1192 4.32031L58.1211 4.62032L58.124 4.62027L58.1192 4.32031ZM58.7169 4.4375L58.5746 4.70169L58.58 4.70445L58.7169 4.4375ZM59.0274 4.79492L59.312 4.70005L59.3113 4.69798L59.0274 4.79492ZM58.9923 5.27539L59.2592 5.41229L59.2606 5.40955L58.9923 5.27539ZM58.5762 5.71484L58.4032 5.46975L58.4013 5.47116L58.5762 5.71484ZM55.5001 7.92383L55.3251 7.68015L55.1449 7.80951L55.2158 8.01967L55.5001 7.92383ZM56.7071 11.5039L56.4228 11.5998L56.423 11.6002L56.7071 11.5039ZM56.7774 12.1016L56.4824 12.0467L56.4811 12.0544L56.7774 12.1016ZM56.5313 12.5117L56.3523 12.2707L56.3439 12.2775L56.5313 12.5117ZM55.5177 12.3711L55.34 12.6128L55.3424 12.6146L55.5177 12.3711ZM52.4649 10.127L52.6426 9.88524L52.4647 9.75449L52.287 9.8854L52.4649 10.127ZM49.418 12.3711L49.5933 12.6146L49.596 12.6126L49.418 12.3711ZM48.5833 12.2709C48.5094 12.216 48.4656 12.147 48.4476 12.0479L47.8573 12.1552C47.9017 12.3998 48.0259 12.6043 48.2255 12.7525L48.5833 12.2709ZM48.4485 12.0534C48.4317 11.9501 48.444 11.8029 48.5127 11.6002L47.9445 11.4076C47.8569 11.6658 47.8184 11.917 47.8563 12.1498L48.4485 12.0534ZM48.5129 11.5998L49.7199 8.01967L49.1513 7.82798L47.9443 11.4081L48.5129 11.5998ZM49.6106 7.68015L46.5344 5.47116L46.1845 5.95852L49.2606 8.16751L49.6106 7.68015ZM46.5325 5.46975C46.3571 5.34597 46.259 5.23333 46.2104 5.1385L45.6765 5.41229C45.7841 5.62214 45.9634 5.80247 46.1864 5.95993L46.5325 5.46975ZM46.2118 5.14123C46.1688 5.05533 46.1636 4.97751 46.1929 4.88979L45.6237 4.70005C45.5435 4.94046 45.5618 5.18295 45.6751 5.40955L46.2118 5.14123ZM46.1922 4.89187C46.2214 4.80624 46.2717 4.74756 46.3557 4.70445L46.0819 4.17055C45.8613 4.28369 45.7045 4.46329 45.6244 4.69798L46.1922 4.89187ZM46.3611 4.70164C46.4532 4.65203 46.5965 4.61686 46.8117 4.62027L46.8212 4.02035C46.5443 4.01595 46.2892 4.0589 46.0766 4.17336L46.3611 4.70164ZM46.8146 4.62031L50.5822 4.64374L50.5859 4.04376L46.8183 4.02032L46.8146 4.62031ZM50.8699 4.43498L52.0183 0.837324L51.4467 0.654864L50.2983 4.25252L50.8699 4.43498ZM52.0185 0.836661C52.0841 0.629499 52.1621 0.500543 52.2376 0.425023L51.8133 0.000758582C51.6467 0.167426 51.5293 0.393938 51.4465 0.655526L52.0185 0.836661ZM52.2376 0.425023C52.3096 0.353002 52.381 0.325391 52.4649 0.325391V-0.274609C52.2129 -0.274609 51.9913 -0.177221 51.8133 0.000758582L52.2376 0.425023ZM52.4649 0.325391C52.5544 0.325391 52.6235 0.354134 52.6889 0.421629L53.1198 0.00415205C52.943 -0.178352 52.7192 -0.274609 52.4649 -0.274609V0.325391ZM52.6956 0.428363C52.7732 0.503542 52.8522 0.631264 52.9172 0.836661L53.4892 0.655526C53.4058 0.392174 53.2855 0.164426 53.1131 -0.00258145L52.6956 0.428363ZM52.9174 0.837324L54.0658 4.43498L54.6374 4.25252L53.489 0.654864L52.9174 0.837324ZM54.3535 4.64374L58.1211 4.62031L58.1174 4.02032L54.3498 4.04376L54.3535 4.64374ZM58.124 4.62027C58.3392 4.61686 58.4825 4.65203 58.5746 4.70164L58.8591 4.17336C58.6465 4.0589 58.3914 4.01595 58.1145 4.02035L58.124 4.62027ZM58.58 4.70445C58.664 4.74756 58.7143 4.80624 58.7435 4.89187L59.3113 4.69798C59.2312 4.46329 59.0744 4.28369 58.8538 4.17055L58.58 4.70445ZM58.7428 4.88979C58.7721 4.97751 58.7669 5.05533 58.7239 5.14123L59.2606 5.40955C59.3739 5.18295 59.3922 4.94046 59.312 4.70005L58.7428 4.88979ZM58.7253 5.1385C58.6767 5.23333 58.5786 5.34597 58.4032 5.46975L58.7493 5.95993C58.9723 5.80247 59.1516 5.62214 59.2592 5.41229L58.7253 5.1385ZM58.4013 5.47116L55.3251 7.68015L55.6751 8.16751L58.7512 5.95852L58.4013 5.47116ZM55.2158 8.01967L56.4228 11.5998L56.9914 11.4081L55.7844 7.82798L55.2158 8.01967ZM56.423 11.6002C56.4912 11.8015 56.5012 11.9461 56.4825 12.0467L57.0724 12.1564C57.1162 11.921 57.0793 11.6673 56.9912 11.4076L56.423 11.6002ZM56.4811 12.0544C56.4658 12.1508 56.4247 12.2172 56.3524 12.2709L56.7102 12.7525C56.9114 12.6031 57.0343 12.3961 57.0737 12.1487L56.4811 12.0544ZM56.3439 12.2775C56.2748 12.3328 56.2084 12.3494 56.1221 12.3337L56.0148 12.9241C56.2723 12.9709 56.5144 12.9094 56.7187 12.746L56.3439 12.2775ZM56.1221 12.3337C56.0074 12.3129 55.8649 12.2515 55.6929 12.1276L55.3424 12.6146C55.561 12.772 55.7857 12.8824 56.0148 12.9241L56.1221 12.3337ZM55.6953 12.1294L52.6426 9.88524L52.2872 10.3687L55.34 12.6128L55.6953 12.1294ZM52.287 9.8854L49.2401 12.1295L49.596 12.6126L52.6428 10.3685L52.287 9.8854ZM49.2428 12.1276C49.0708 12.2515 48.9283 12.3129 48.8136 12.3337L48.9209 12.9241C49.15 12.8824 49.3747 12.772 49.5933 12.6146L49.2428 12.1276ZM48.8136 12.3337C48.7273 12.3494 48.6609 12.3328 48.5918 12.2775L48.217 12.746C48.4213 12.9094 48.6634 12.9709 48.9209 12.9241L48.8136 12.3337ZM63.6303 12.5117L63.8178 12.2773L63.8092 12.2709L63.6303 12.5117ZM63.3784 12.1016L63.0822 12.1498L63.0832 12.1552L63.3784 12.1016ZM63.4545 11.5039L63.7387 11.6002L63.7388 11.5998L63.4545 11.5039ZM64.6616 7.92383L64.9458 8.01967L65.0167 7.80951L64.8365 7.68015L64.6616 7.92383ZM61.5854 5.71484L61.7604 5.47116L61.7584 5.46975L61.5854 5.71484ZM61.1694 5.27539L60.901 5.40956L60.9024 5.41229L61.1694 5.27539ZM61.1342 4.79492L60.8503 4.69798L60.8496 4.70005L61.1342 4.79492ZM61.4448 4.4375L61.5817 4.7045L61.587 4.70164L61.4448 4.4375ZM62.0424 4.32031L62.0377 4.62029L62.0406 4.62031L62.0424 4.32031ZM65.81 4.34375L65.8081 4.64374L66.0287 4.64512L66.0958 4.43498L65.81 4.34375ZM66.9584 0.746094L67.2442 0.837324L67.2444 0.836661L66.9584 0.746094ZM68.1303 0.212891L67.9147 0.421734L67.9216 0.428363L68.1303 0.212891ZM68.4291 0.746094L68.1431 0.836662L68.1433 0.837324L68.4291 0.746094ZM69.5776 4.34375L69.2918 4.43498L69.3589 4.64512L69.5794 4.64374L69.5776 4.34375ZM73.3452 4.32031L73.347 4.62032L73.3499 4.62027L73.3452 4.32031ZM73.9428 4.4375L73.8006 4.70169L73.8059 4.70445L73.9428 4.4375ZM74.2534 4.79492L74.538 4.70005L74.5373 4.69798L74.2534 4.79492ZM74.2182 5.27539L74.4852 5.41229L74.4865 5.40955L74.2182 5.27539ZM73.8022 5.71484L73.6292 5.46975L73.6272 5.47116L73.8022 5.71484ZM70.726 7.92383L70.551 7.68015L70.3709 7.80951L70.4417 8.01967L70.726 7.92383ZM71.933 11.5039L71.6488 11.5998L71.6489 11.6002L71.933 11.5039ZM72.0034 12.1016L71.7083 12.0467L71.7071 12.0544L72.0034 12.1016ZM71.7573 12.5117L71.5783 12.2707L71.5699 12.2775L71.7573 12.5117ZM70.7436 12.3711L70.5659 12.6128L70.5683 12.6146L70.7436 12.3711ZM67.6909 10.127L67.8686 9.88524L67.6907 9.75449L67.5129 9.8854L67.6909 10.127ZM64.644 12.3711L64.8193 12.6146L64.8219 12.6126L64.644 12.3711ZM63.8092 12.2709C63.7353 12.216 63.6915 12.147 63.6735 12.0479L63.0832 12.1552C63.1277 12.3998 63.2519 12.6043 63.4514 12.7525L63.8092 12.2709ZM63.6745 12.0534C63.6577 11.9501 63.6699 11.8029 63.7387 11.6002L63.1704 11.4076C63.0829 11.6658 63.0444 11.917 63.0823 12.1498L63.6745 12.0534ZM63.7388 11.5998L64.9458 8.01967L64.3773 7.82798L63.1703 11.4081L63.7388 11.5998ZM64.8365 7.68015L61.7604 5.47116L61.4104 5.95852L64.4866 8.16751L64.8365 7.68015ZM61.7584 5.46975C61.583 5.34597 61.485 5.23333 61.4363 5.1385L60.9024 5.41229C61.01 5.62214 61.1893 5.80247 61.4124 5.95993L61.7584 5.46975ZM61.4377 5.14123C61.3948 5.05533 61.3896 4.97751 61.4188 4.88979L60.8496 4.70005C60.7695 4.94046 60.7877 5.18295 60.901 5.40955L61.4377 5.14123ZM61.4181 4.89187C61.4474 4.80624 61.4976 4.74756 61.5817 4.70445L61.3079 4.17055C61.0872 4.28369 60.9305 4.46329 60.8503 4.69798L61.4181 4.89187ZM61.587 4.70164C61.6791 4.65203 61.8224 4.61686 62.0377 4.62027L62.0472 4.02035C61.7702 4.01595 61.5151 4.0589 61.3025 4.17336L61.587 4.70164ZM62.0406 4.62031L65.8081 4.64374L65.8119 4.04376L62.0443 4.02032L62.0406 4.62031ZM66.0958 4.43498L67.2442 0.837324L66.6726 0.654864L65.5242 4.25252L66.0958 4.43498ZM67.2444 0.836661C67.31 0.629499 67.388 0.500543 67.4635 0.425023L67.0393 0.000758582C66.8726 0.167426 66.7553 0.393938 66.6724 0.655526L67.2444 0.836661ZM67.4635 0.425023C67.5356 0.353002 67.607 0.325391 67.6909 0.325391V-0.274609C67.4388 -0.274609 67.2173 -0.177221 67.0393 0.000758582L67.4635 0.425023ZM67.6909 0.325391C67.7804 0.325391 67.8495 0.354134 67.9148 0.421629L68.3458 0.00415205C68.169 -0.178352 67.9451 -0.274609 67.6909 -0.274609V0.325391ZM67.9216 0.428363C67.9992 0.503542 68.0781 0.631264 68.1431 0.836661L68.7151 0.655526C68.6317 0.392174 68.5114 0.164426 68.3391 -0.00258145L67.9216 0.428363ZM68.1433 0.837324L69.2918 4.43498L69.8634 4.25252L68.7149 0.654864L68.1433 0.837324ZM69.5794 4.64374L73.347 4.62031L73.3433 4.02032L69.5757 4.04376L69.5794 4.64374ZM73.3499 4.62027C73.5652 4.61686 73.7085 4.65203 73.8006 4.70164L74.085 4.17336C73.8725 4.0589 73.6173 4.01595 73.3404 4.02035L73.3499 4.62027ZM73.8059 4.70445C73.89 4.74756 73.9402 4.80624 73.9695 4.89187L74.5373 4.69798C74.4571 4.46329 74.3003 4.28369 74.0797 4.17055L73.8059 4.70445ZM73.9688 4.88979C73.998 4.97751 73.9928 5.05533 73.9499 5.14123L74.4865 5.40955C74.5998 5.18295 74.6181 4.94046 74.538 4.70005L73.9688 4.88979ZM73.9513 5.1385C73.9026 5.23333 73.8045 5.34597 73.6292 5.46975L73.9752 5.95993C74.1983 5.80247 74.3775 5.62214 74.4851 5.41229L73.9513 5.1385ZM73.6272 5.47116L70.551 7.68015L70.901 8.16751L73.9772 5.95852L73.6272 5.47116ZM70.4417 8.01967L71.6488 11.5998L72.2173 11.4081L71.0103 7.82798L70.4417 8.01967ZM71.6489 11.6002C71.7172 11.8015 71.7271 11.9461 71.7084 12.0467L72.2983 12.1564C72.3421 11.921 72.3052 11.6673 72.2172 11.4076L71.6489 11.6002ZM71.7071 12.0544C71.6918 12.1508 71.6506 12.2172 71.5784 12.2709L71.9362 12.7525C72.1373 12.6031 72.2603 12.3961 72.2996 12.1487L71.7071 12.0544ZM71.5699 12.2775C71.5007 12.3328 71.4343 12.3494 71.348 12.3337L71.2407 12.9241C71.4982 12.9709 71.7404 12.9094 71.9447 12.746L71.5699 12.2775ZM71.348 12.3337C71.2334 12.3129 71.0909 12.2515 70.9189 12.1276L70.5683 12.6146C70.7869 12.772 71.0116 12.8824 71.2407 12.9241L71.348 12.3337ZM70.9213 12.1294L67.8686 9.88524L67.5132 10.3687L70.5659 12.6128L70.9213 12.1294ZM67.5129 9.8854L64.4661 12.1295L64.8219 12.6126L67.8688 10.3685L67.5129 9.8854ZM64.4687 12.1276C64.2967 12.2515 64.1542 12.3129 64.0395 12.3337L64.1469 12.9241C64.3759 12.8824 64.6006 12.772 64.8193 12.6146L64.4687 12.1276ZM64.0395 12.3337C63.9533 12.3494 63.8868 12.3328 63.8177 12.2775L63.4429 12.746C63.6472 12.9094 63.8894 12.9709 64.1469 12.9241L64.0395 12.3337Z" fill="#AFAFAF" mask="url(#path-1-outside-1_151_10)"/>
</svg>
