<svg width="426" height="82" viewBox="0 0 426 82" fill="none" xmlns="http://www.w3.org/2000/svg">
<path d="M195.256 71.6847C194.896 73.7358 196.92 75.3412 198.707 74.4226L219.007 63.9888L239.307 74.4226C241.095 75.3412 243.118 73.7358 242.758 71.6847L238.921 49.8108L255.212 34.2864C256.734 32.8355 255.946 30.1828 253.907 29.8931L231.251 26.6747L221.149 6.66441C220.24 4.86186 217.775 4.86186 216.865 6.66441L206.763 26.6747L184.108 29.8931C182.068 30.1828 181.28 32.8355 182.802 34.2864L199.093 49.8108L195.256 71.6847ZM217.939 58.8821L200.893 67.6436L204.104 49.3411C204.255 48.4784 203.971 47.5949 203.351 47.0046L189.907 34.1929L208.649 31.5304C209.424 31.4203 210.1 30.9255 210.466 30.2015L219.007 13.2817L227.548 30.2015C227.914 30.9255 228.59 31.4203 229.365 31.5304L248.107 34.1929L234.663 47.0046C234.044 47.5949 233.759 48.4784 233.91 49.3411L237.121 67.6436L220.075 58.8821C219.401 58.536 218.613 58.536 217.939 58.8821Z" fill="black"/>
<path d="M280.256 71.6847C279.896 73.7358 281.92 75.3412 283.707 74.4226L304.007 63.9888L324.307 74.4226C326.095 75.3412 328.118 73.7358 327.758 71.6847L323.921 49.8108L340.212 34.2864C341.734 32.8355 340.946 30.1828 338.907 29.8931L316.251 26.6747L306.15 6.66441C305.24 4.86186 302.775 4.86186 301.865 6.66441L291.763 26.6747L269.108 29.8931C267.068 30.1828 266.28 32.8355 267.802 34.2864L284.093 49.8108L280.256 71.6847ZM302.939 58.8821L285.893 67.6436L289.104 49.3411C289.255 48.4784 288.971 47.5949 288.351 47.0046L274.907 34.1929L293.649 31.5304C294.424 31.4203 295.1 30.9255 295.466 30.2015L304.007 13.2817L312.549 30.2015C312.914 30.9255 313.59 31.4203 314.365 31.5304L333.107 34.1929L319.663 47.0046C319.044 47.5949 318.759 48.4784 318.91 49.3411L322.121 67.6436L305.075 58.8821C304.401 58.536 303.613 58.536 302.939 58.8821Z" fill="black"/>
<path d="M365.256 71.6847C364.896 73.7358 366.92 75.3412 368.707 74.4226L389.007 63.9888L409.307 74.4226C411.095 75.3412 413.118 73.7358 412.758 71.6847L408.921 49.8108L425.212 34.2864C426.734 32.8355 425.946 30.1828 423.907 29.8931L401.251 26.6747L391.15 6.66441C390.24 4.86186 387.775 4.86186 386.865 6.66441L376.763 26.6747L354.108 29.8931C352.068 30.1828 351.28 32.8355 352.802 34.2864L369.093 49.8108L365.256 71.6847ZM387.939 58.8821L370.893 67.6436L374.104 49.3411C374.255 48.4784 373.971 47.5949 373.351 47.0046L359.907 34.1929L378.649 31.5304C379.424 31.4203 380.1 30.9255 380.466 30.2015L389.007 13.2817L397.549 30.2015C397.914 30.9255 398.59 31.4203 399.365 31.5304L418.107 34.1929L404.663 47.0046C404.044 47.5949 403.759 48.4784 403.91 49.3411L407.121 67.6436L390.075 58.8821C389.401 58.536 388.613 58.536 387.939 58.8821Z" fill="black"/>
<path d="M14.3305 76.2538C13.9415 78.4711 16.1293 80.2067 18.0615 79.2136L40.0076 67.9338L61.9538 79.2136C63.886 80.2067 66.0738 78.4711 65.6848 76.2538L61.5362 52.6063L79.1478 35.8231C80.7937 34.2546 79.9417 31.3868 77.7368 31.0736L53.2444 27.5942L42.3238 5.96152C41.3401 4.01283 38.6752 4.01283 37.6915 5.96152L26.7709 27.5942L2.27849 31.0736C0.0735429 31.3868 -0.778458 34.2546 0.867445 35.8231L18.4791 52.6063L14.3305 76.2538ZM38.8535 62.4131L20.4247 71.885L23.896 52.0985C24.0596 51.1658 23.752 50.2107 23.0823 49.5725L8.54807 35.722L28.8096 32.8437C29.6472 32.7247 30.3785 32.1897 30.7737 31.407L40.0076 13.1154L49.2416 31.407C49.6367 32.1897 50.3681 32.7247 51.2057 32.8437L71.4672 35.722L56.933 49.5725C56.2633 50.2107 55.9556 51.1658 56.1193 52.0985L59.5905 71.885L41.1618 62.4131C40.4338 62.0389 39.5815 62.0389 38.8535 62.4131Z" fill="black"/>
<path d="M105.33 74.2538C104.941 76.4711 107.129 78.2067 109.062 77.2136L131.008 65.9338L152.954 77.2136C154.886 78.2067 157.074 76.4711 156.685 74.2538L152.536 50.6063L170.148 33.8231C171.794 32.2546 170.942 29.3868 168.737 29.0736L144.244 25.5942L133.324 3.96152C132.34 2.01283 129.675 2.01283 128.691 3.96152L117.771 25.5942L93.2785 29.0736C91.0735 29.3868 90.2215 32.2546 91.8674 33.8231L109.479 50.6063L105.33 74.2538ZM129.853 60.4131L111.425 69.885L114.896 50.0985C115.06 49.1658 114.752 48.2107 114.082 47.5725L99.5481 33.722L119.81 30.8437C120.647 30.7247 121.379 30.1897 121.774 29.407L131.008 11.1154L140.242 29.407C140.637 30.1897 141.368 30.7247 142.206 30.8437L162.467 33.722L147.933 47.5725C147.263 48.2107 146.956 49.1658 147.119 50.0985L150.591 69.885L132.162 60.4131C131.434 60.0389 130.581 60.0389 129.853 60.4131Z" fill="black"/>
</svg>
