<svg width="426" height="80" viewBox="0 0 426 80" fill="none" xmlns="http://www.w3.org/2000/svg">
<path d="M195.256 69.6847C194.896 71.7358 196.92 73.3412 198.707 72.4226L219.007 61.9888L239.307 72.4226C241.095 73.3412 243.118 71.7358 242.758 69.6847L238.921 47.8108L255.212 32.2864C256.734 30.8355 255.946 28.1828 253.907 27.8931L231.251 24.6747L221.149 4.66441C220.24 2.86186 217.775 2.86186 216.865 4.66441L206.763 24.6747L184.108 27.8931C182.068 28.1828 181.28 30.8355 182.802 32.2864L199.093 47.8108L195.256 69.6847ZM217.939 56.8821L200.893 65.6436L204.104 47.3411C204.255 46.4784 203.971 45.5949 203.351 45.0046L189.907 32.1929L208.649 29.5304C209.424 29.4203 210.1 28.9255 210.466 28.2015L219.007 11.2817L227.548 28.2015C227.914 28.9255 228.59 29.4203 229.365 29.5304L248.107 32.1929L234.663 45.0046C234.044 45.5949 233.759 46.4784 233.91 47.3411L237.121 65.6436L220.075 56.8821C219.401 56.536 218.613 56.536 217.939 56.8821Z" fill="black"/>
<path d="M280.256 69.6847C279.896 71.7358 281.92 73.3412 283.707 72.4226L304.007 61.9888L324.307 72.4226C326.095 73.3412 328.118 71.7358 327.758 69.6847L323.921 47.8108L340.212 32.2864C341.734 30.8355 340.946 28.1828 338.907 27.8931L316.251 24.6747L306.15 4.66441C305.24 2.86186 302.775 2.86186 301.865 4.66441L291.763 24.6747L269.108 27.8931C267.068 28.1828 266.28 30.8355 267.802 32.2864L284.093 47.8108L280.256 69.6847ZM302.939 56.8821L285.893 65.6436L289.104 47.3411C289.255 46.4784 288.971 45.5949 288.351 45.0046L274.907 32.1929L293.649 29.5304C294.424 29.4203 295.1 28.9255 295.466 28.2015L304.007 11.2817L312.549 28.2015C312.914 28.9255 313.59 29.4203 314.365 29.5304L333.107 32.1929L319.663 45.0046C319.044 45.5949 318.759 46.4784 318.91 47.3411L322.121 65.6436L305.075 56.8821C304.401 56.536 303.613 56.536 302.939 56.8821Z" fill="black"/>
<path d="M365.256 69.6847C364.896 71.7358 366.92 73.3412 368.707 72.4226L389.007 61.9888L409.307 72.4226C411.095 73.3412 413.118 71.7358 412.758 69.6847L408.921 47.8108L425.212 32.2864C426.734 30.8355 425.946 28.1828 423.907 27.8931L401.251 24.6747L391.15 4.66441C390.24 2.86186 387.775 2.86186 386.865 4.66441L376.763 24.6747L354.108 27.8931C352.068 28.1828 351.28 30.8355 352.802 32.2864L369.093 47.8108L365.256 69.6847ZM387.939 56.8821L370.893 65.6436L374.104 47.3411C374.255 46.4784 373.971 45.5949 373.351 45.0046L359.907 32.1929L378.649 29.5304C379.424 29.4203 380.1 28.9255 380.466 28.2015L389.007 11.2817L397.549 28.2015C397.914 28.9255 398.59 29.4203 399.365 29.5304L418.107 32.1929L404.663 45.0046C404.044 45.5949 403.759 46.4784 403.91 47.3411L407.121 65.6436L390.075 56.8821C389.401 56.536 388.613 56.536 387.939 56.8821Z" fill="black"/>
<path d="M109.062 77.2136C107.129 78.2067 104.941 76.4711 105.33 74.2538L109.479 50.6063L91.8674 33.8231C90.2215 32.2546 91.0735 29.3868 93.2785 29.0736L117.771 25.5942L128.691 3.96152C129.675 2.01283 132.34 2.01283 133.324 3.96152L144.244 25.5942L168.737 29.0736C170.942 29.3868 171.794 32.2546 170.148 33.8231L152.536 50.6063L156.685 74.2538C157.074 76.4711 154.886 78.2067 152.954 77.2136L131.008 65.9338L109.062 77.2136Z" fill="black"/>
<path d="M18.0615 77.2136C16.1293 78.2067 13.9415 76.4711 14.3305 74.2538L18.4791 50.6063L0.867445 33.8231C-0.778458 32.2546 0.0735429 29.3868 2.27849 29.0736L26.7709 25.5942L37.6915 3.96152C38.6752 2.01283 41.34 2.01283 42.3238 3.96152L53.2444 25.5942L77.7368 29.0736C79.9417 29.3868 80.7937 32.2546 79.1478 33.8231L61.5362 50.6063L65.6848 74.2538C66.0738 76.4711 63.886 78.2067 61.9538 77.2136L40.0076 65.9338L18.0615 77.2136Z" fill="black"/>
</svg>
