<svg width="426" height="80" viewBox="0 0 426 80" fill="none" xmlns="http://www.w3.org/2000/svg">
<path d="M365.256 69.6847C364.896 71.7358 366.92 73.3412 368.707 72.4226L389.007 61.9888L409.307 72.4226C411.095 73.3412 413.118 71.7358 412.758 69.6847L408.921 47.8108L425.212 32.2864C426.734 30.8355 425.946 28.1828 423.907 27.8931L401.251 24.6747L391.15 4.66441C390.24 2.86186 387.775 2.86186 386.865 4.66441L376.763 24.6747L354.108 27.8931C352.068 28.1828 351.28 30.8355 352.802 32.2864L369.093 47.8108L365.256 69.6847ZM387.939 56.8821L370.893 65.6436L374.104 47.3411C374.255 46.4784 373.971 45.5949 373.351 45.0046L359.907 32.1929L378.649 29.5304C379.424 29.4203 380.1 28.9255 380.466 28.2015L389.007 11.2817L397.549 28.2015C397.914 28.9255 398.59 29.4203 399.365 29.5304L418.107 32.1929L404.663 45.0046C404.044 45.5949 403.759 46.4784 403.91 47.3411L407.121 65.6436L390.075 56.8821C389.401 56.536 388.613 56.536 387.939 56.8821Z" fill="black"/>
<path d="M200.062 77.2136C198.129 78.2067 195.941 76.4711 196.33 74.2538L200.479 50.6063L182.867 33.8231C181.222 32.2546 182.074 29.3868 184.278 29.0736L208.771 25.5942L219.691 3.96152C220.675 2.01283 223.34 2.01283 224.324 3.96152L235.244 25.5942L259.737 29.0736C261.942 29.3868 262.794 32.2546 261.148 33.8231L243.536 50.6063L247.685 74.2538C248.074 76.4711 245.886 78.2067 243.954 77.2136L222.008 65.9338L200.062 77.2136Z" fill="black"/>
<path d="M285.062 77.2136C283.129 78.2067 280.941 76.4711 281.33 74.2538L285.479 50.6063L267.867 33.8231C266.222 32.2546 267.074 29.3868 269.278 29.0736L293.771 25.5942L304.691 3.96152C305.675 2.01283 308.34 2.01283 309.324 3.96152L320.244 25.5942L344.737 29.0736C346.942 29.3868 347.794 32.2546 346.148 33.8231L328.536 50.6063L332.685 74.2538C333.074 76.4711 330.886 78.2067 328.954 77.2136L307.008 65.9338L285.062 77.2136Z" fill="black"/>
<path d="M109.062 77.2136C107.129 78.2067 104.941 76.4711 105.33 74.2538L109.479 50.6063L91.8674 33.8231C90.2215 32.2546 91.0735 29.3868 93.2785 29.0736L117.771 25.5942L128.691 3.96152C129.675 2.01283 132.34 2.01283 133.324 3.96152L144.244 25.5942L168.737 29.0736C170.942 29.3868 171.794 32.2546 170.148 33.8231L152.536 50.6063L156.685 74.2538C157.074 76.4711 154.886 78.2067 152.954 77.2136L131.008 65.9338L109.062 77.2136Z" fill="black"/>
<path d="M18.0615 77.2136C16.1293 78.2067 13.9415 76.4711 14.3305 74.2538L18.4791 50.6063L0.867445 33.8231C-0.778458 32.2546 0.0735429 29.3868 2.27849 29.0736L26.7709 25.5942L37.6915 3.96152C38.6752 2.01283 41.34 2.01283 42.3238 3.96152L53.2444 25.5942L77.7368 29.0736C79.9417 29.3868 80.7937 32.2546 79.1478 33.8231L61.5362 50.6063L65.6848 74.2538C66.0738 76.4711 63.886 78.2067 61.9538 77.2136L40.0076 65.9338L18.0615 77.2136Z" fill="black"/>
</svg>
