<svg width="89" height="19" viewBox="0 0 89 19" fill="none" xmlns="http://www.w3.org/2000/svg">
<path d="M74.5278 0H79.0736V5.18242C79.6931 4.42898 80.321 3.92668 80.9572 3.67553C81.5935 3.40763 82.3385 3.27369 83.1925 3.27369C84.8166 3.27369 86.0388 3.72576 86.8592 4.6299C87.6964 5.51729 88.115 6.72281 88.115 8.24645V16.4339H83.5692V9.92915C83.5692 9.27616 83.5189 8.74874 83.4185 8.34691C83.318 7.94507 83.1506 7.63532 82.9162 7.41765C82.5144 7.06604 82.0288 6.89024 81.4595 6.89024C80.6893 6.89024 80.0949 7.12465 79.6764 7.59346C79.2745 8.04553 79.0736 8.69852 79.0736 9.55242V16.4339H74.5278V0Z" fill="#1B1212"/>
<path d="M71.0421 6.86513C70.205 6.42981 69.3845 6.21214 68.5809 6.21214C68.1623 6.21214 67.819 6.29586 67.5511 6.46329C67.3 6.63073 67.1744 6.85676 67.1744 7.1414C67.1744 7.29209 67.1912 7.41766 67.2247 7.51812C67.2749 7.60184 67.367 7.68555 67.5009 7.76927C67.6516 7.85299 67.8609 7.92833 68.1288 7.99531C68.4134 8.06228 68.7818 8.146 69.2339 8.24646C70.4896 8.4976 71.4272 8.94967 72.0467 9.60266C72.6662 10.2389 72.976 11.0593 72.976 12.0639C72.976 12.8174 72.8253 13.4955 72.5239 14.0982C72.2225 14.701 71.8039 15.2117 71.2682 15.6302C70.7324 16.0321 70.0878 16.3418 69.3343 16.5595C68.5809 16.7939 67.7521 16.9111 66.8479 16.9111C65.1066 16.9111 63.3904 16.4172 61.6994 15.4293L63.357 12.2146C64.6294 13.0853 65.835 13.5206 66.9735 13.5206C67.3921 13.5206 67.7353 13.4285 68.0032 13.2443C68.2711 13.0602 68.4051 12.8257 68.4051 12.5411C68.4051 12.3737 68.3799 12.2397 68.3297 12.1393C68.2962 12.0221 68.2125 11.9216 68.0786 11.8379C67.9446 11.7374 67.7437 11.6537 67.4758 11.5867C67.2247 11.503 66.8898 11.4193 66.4712 11.3356C65.0648 11.051 64.0769 10.6324 63.5076 10.0798C62.9551 9.51057 62.6789 8.73201 62.6789 7.74416C62.6789 7.02419 62.8128 6.37958 63.0807 5.8103C63.3486 5.22429 63.7337 4.73036 64.236 4.32852C64.7383 3.92668 65.341 3.61693 66.0443 3.39927C66.7642 3.18161 67.5595 3.07278 68.4302 3.07278C69.8533 3.07278 71.2347 3.34904 72.5741 3.90157L71.0421 6.86513Z" fill="#1B1212"/>
<path d="M49.8659 9.95426C49.8659 10.3728 49.9413 10.7663 50.0919 11.1347C50.2426 11.4863 50.4436 11.796 50.6947 12.0639C50.9626 12.3318 51.2723 12.5411 51.624 12.6918C51.9923 12.8425 52.3858 12.9178 52.8044 12.9178C53.2062 12.9178 53.5829 12.8425 53.9345 12.6918C54.3029 12.5411 54.6126 12.3318 54.8638 12.0639L52.8044 9.95426L54.8638 7.91995C54.6126 7.65206 54.3029 7.44277 53.9345 7.29208C53.5829 7.14139 53.2062 7.06604 52.8044 7.06604C52.3858 7.06604 51.9923 7.14139 51.624 7.29208C51.2723 7.44277 50.9626 7.65206 50.6947 7.91995C50.4436 8.18784 50.2426 8.49759 50.0919 8.8492C49.9413 9.18407 49.8659 9.55242 49.8659 9.95426ZM55.5921 3.54995H60.163V7.94684L58.0374 9.95426L60.163 12.0364V16.4339H55.5921V15.0024C54.621 16.2246 53.3067 16.8358 51.6491 16.8358C50.7114 16.8358 49.8492 16.6683 49.0622 16.3335C48.2753 15.9818 47.5888 15.4963 47.0028 14.8768C46.4168 14.2573 45.9564 13.529 45.6215 12.6918C45.3034 11.8546 45.1443 10.9421 45.1443 9.95426C45.1443 9.03338 45.3034 8.16273 45.6215 7.3423C45.9396 6.50514 46.3833 5.77681 46.9526 5.15731C47.5218 4.5378 48.2 4.05225 48.9869 3.70064C49.7738 3.33229 50.6445 3.14811 51.5988 3.14811C53.2062 3.14811 54.5373 3.70901 55.5921 4.83081V3.54995Z" fill="#1B1212"/>
<path d="M34.1453 3.54996V10.8082C34.1453 12.3988 34.9155 13.1941 36.4559 13.1941C37.9963 13.1941 38.7665 12.3988 38.7665 10.8082V3.54996H43.3123V11.6872C43.3123 13.4285 42.7346 14.7345 41.5794 15.6051C40.4408 16.4758 38.733 16.9111 36.4559 16.9111C34.1788 16.9111 32.4626 16.4758 31.3073 15.6051C30.1688 14.7345 29.5995 13.4285 29.5995 11.6872V3.54996H34.1453Z" fill="#1B1212"/>
<path d="M17.0477 9.95426C17.0477 10.3728 17.1231 10.7663 17.2738 11.1347C17.4245 11.4863 17.6254 11.796 17.8765 12.0639C18.1444 12.3318 18.4542 12.5411 18.8058 12.6918C19.1741 12.8425 19.5676 12.9178 19.9862 12.9178C20.388 12.9178 20.7648 12.8425 21.1164 12.6918C21.4847 12.5411 21.7945 12.3318 22.0456 12.0639L19.9862 9.95426L22.0456 7.91995C21.7945 7.65206 21.4847 7.44277 21.1164 7.29208C20.7648 7.14139 20.388 7.06604 19.9862 7.06604C19.5844 7.06604 19.1993 7.14139 18.8309 7.29208C18.4793 7.44277 18.1696 7.65206 17.9017 7.91995C17.6505 8.18784 17.4412 8.49759 17.2738 8.8492C17.1231 9.18407 17.0477 9.55242 17.0477 9.95426ZM22.774 19V15.1782C21.7191 16.2832 20.388 16.8358 18.7807 16.8358C17.8598 16.8358 17.0059 16.6599 16.219 16.3083C15.432 15.9567 14.7455 15.4712 14.1595 14.8517C13.5903 14.2322 13.1382 13.5122 12.8033 12.6918C12.4852 11.8546 12.3261 10.9672 12.3261 10.0296C12.3261 9.05849 12.4936 8.15435 12.8284 7.31719C13.1633 6.48003 13.6237 5.75169 14.2098 5.13219C14.7958 4.51269 15.4823 4.02713 16.2692 3.67552C17.0561 3.32391 17.91 3.14811 18.8309 3.14811C20.4885 3.14811 21.8028 3.75924 22.774 4.9815V3.54995H27.3449V7.91995L25.2787 9.95426L27.3449 12.0639V19H22.774Z" fill="#1B1212"/>
<path d="M9.34276 6.86513C8.50559 6.42981 7.68517 6.21214 6.88149 6.21214C6.46291 6.21214 6.11967 6.29586 5.85178 6.46329C5.60063 6.63073 5.47506 6.85676 5.47506 7.1414C5.47506 7.29209 5.4918 7.41766 5.52529 7.51812C5.57552 7.60184 5.6676 7.68555 5.80155 7.76927C5.95224 7.85299 6.16153 7.92833 6.42943 7.99531C6.71406 8.06228 7.08241 8.146 7.53448 8.24646C8.79023 8.4976 9.72785 8.94967 10.3474 9.60266C10.9669 10.2389 11.2766 11.0593 11.2766 12.0639C11.2766 12.8174 11.1259 13.4955 10.8245 14.0982C10.5232 14.701 10.1046 15.2117 9.56879 15.6302C9.03301 16.0321 8.38839 16.3418 7.63494 16.5595C6.88149 16.7939 6.0527 16.9111 5.14856 16.9111C3.40726 16.9111 1.69107 16.4172 0 15.4293L1.65759 12.2146C2.93008 13.0853 4.13559 13.5206 5.27414 13.5206C5.69272 13.5206 6.03596 13.4285 6.30385 13.2443C6.57174 13.0602 6.70569 12.8257 6.70569 12.5411C6.70569 12.3737 6.68057 12.2397 6.63034 12.1393C6.59686 12.0221 6.51314 11.9216 6.37919 11.8379C6.24525 11.7374 6.04433 11.6537 5.77644 11.5867C5.52529 11.503 5.19042 11.4193 4.77184 11.3356C3.3654 11.051 2.37755 10.6324 1.80828 10.0798C1.25575 9.51057 0.979483 8.73201 0.979483 7.74416C0.979483 7.02419 1.11343 6.37958 1.38132 5.8103C1.64921 5.22429 2.03431 4.73036 2.53661 4.32852C3.03891 3.92668 3.64167 3.61693 4.34488 3.39927C5.06485 3.18161 5.86015 3.07278 6.7308 3.07278C8.15398 3.07278 9.53531 3.34904 10.8748 3.90157L9.34276 6.86513Z" fill="#1B1212"/>
</svg>
